<?xml version="1.0" encoding="utf-8"?>
<!-- Generator: Adobe Illustrator 16.0.0, SVG Export Plug-In . SVG Version: 6.00 Build 0)  -->
<!DOCTYPE svg PUBLIC "-//W3C//DTD SVG 1.1//EN" "http://www.w3.org/Graphics/SVG/1.1/DTD/svg11.dtd">
<svg version="1.1" id="Layer_1" xmlns="http://www.w3.org/2000/svg" xmlns:xlink="http://www.w3.org/1999/xlink" x="0px" y="0px"
	 width="189.92px" height="189.92px" viewBox="0 0 189.92 189.92" enable-background="new 0 0 189.92 189.92" xml:space="preserve">
<g>
	<path d="M126.422,33.651c-0.168,0.49-0.508,1.18-1.152,2.15c-0.653,0.982-1.468,1.681-2.479,2.149
		c-0.955,0.447-2.243,0.747-3.521,0.744c-1.281-0.003-2.219-0.236-2.676-0.656c-0.59-0.545-0.488-1.349,0.139-2.291
		c0.139-0.208,0.284-0.396,0.421-0.542l-4.681-0.012l1.054-1.579L126.422,33.651z M119.44,35.211
		c-0.147,0.137-0.275,0.302-0.429,0.533c-0.562,0.846-0.113,1.369,1.229,1.374c1.198,0.002,2.217-0.445,2.743-1.238
		c0.214-0.324,0.301-0.543,0.318-0.659L119.44,35.211z"/>
	<path d="M122.396,39.721c-0.186,0.513-0.576,1.276-1.139,2.123c-0.693,1.044-1.468,1.774-2.539,2.273
		c-0.9,0.416-1.964,0.645-3.166,0.64c-1.669-0.004-2.391-0.643-2.394-1.251l-0.058,0c-0.696,0.491-1.749,0.759-3.068,0.934
		c-1.621,0.215-3.476,0.432-4.071,0.566l1.086-1.631c0.446-0.113,1.62-0.277,3.371-0.482c1.754-0.184,2.399-0.485,2.849-1.132
		l0.319-0.481l-5.14-0.013l1.044-1.577L122.396,39.721z M115.72,41.285l-0.412,0.625c-0.53,0.795-0.105,1.267,1.037,1.269
		c1.205,0.003,2.098-0.434,2.603-1.165c0.26-0.386,0.345-0.606,0.383-0.72L115.72,41.285z"/>
	<path d="M117.394,47.517l-13.075-0.034l1.06-1.599l13.077,0.034L117.394,47.517z"/>
	<path d="M103.404,48.863l13.073,0.034l-1.234,1.859l-5.76,1.45c-1.655,0.415-3.566,0.828-5.247,1.137l-0.025,0.034
		c1.804-0.104,3.585-0.128,5.548-0.124l3.818,0.01l-0.971,1.462l-13.073-0.034l1.109-1.671l6.044-1.491
		c1.674-0.414,3.664-0.869,5.429-1.211l0.001-0.03c-1.758,0.037-3.613,0.054-5.75,0.047l-3.936-0.011L103.404,48.863z"/>
	<path d="M108.307,57.458l1.254-1.891l2.479,0.008l-3.586,5.409l-2.483-0.006l1.275-1.922l-10.593-0.028l1.063-1.597L108.307,57.458
		z"/>
	<path d="M106.826,63.431l-13.071-0.035l1.058-1.597l13.078,0.032L106.826,63.431z"/>
	<path d="M92.836,64.777l13.078,0.033l-1.237,1.861l-5.761,1.449c-1.657,0.414-3.564,0.826-5.248,1.137l-0.021,0.032
		c1.798-0.1,3.584-0.128,5.544-0.122l3.82,0.01l-0.971,1.463l-13.072-0.036l1.108-1.67l6.043-1.491
		c1.674-0.414,3.664-0.869,5.429-1.21l0.001-0.03c-1.755,0.037-3.613,0.053-5.748,0.047l-3.936-0.01L92.836,64.777z"/>
	<path d="M84.744,77.87c0.019-0.493,0.208-1.423,0.824-2.352c0.854-1.286,2.071-2.213,3.669-2.858
		c1.554-0.645,3.492-0.994,5.411-0.98c4.335,0.024,5.69,1.732,4.157,4.04c-0.606,0.909-1.396,1.607-1.934,1.951l-2.146-0.341
		c0.563-0.384,1.136-0.864,1.649-1.637c0.883-1.327,0.15-2.334-2.683-2.339c-2.697-0.007-4.891,0.896-5.757,2.203
		c-0.242,0.364-0.361,0.656-0.33,0.783l2.736,0.007l0.726-1.087l2.304,0.007l-1.736,2.621L84.744,77.87z"/>
	<path d="M98.502,40.563c-0.18,0.511-0.576,1.276-1.137,2.122c-0.693,1.044-1.47,1.775-2.537,2.273
		c-0.9,0.416-1.965,0.644-3.167,0.642c-1.668-0.004-2.392-0.646-2.396-1.251l-0.061,0c-0.693,0.49-1.746,0.759-3.064,0.933
		c-1.624,0.215-3.473,0.431-4.068,0.564l1.082-1.627c0.444-0.114,1.622-0.278,3.368-0.484c1.755-0.182,2.403-0.485,2.857-1.134
		l0.317-0.48l-5.145-0.012l1.048-1.577L98.502,40.563z M91.829,42.127l-0.416,0.626c-0.524,0.794-0.101,1.266,1.044,1.269
		c1.205,0.003,2.096-0.434,2.599-1.165c0.26-0.388,0.344-0.607,0.38-0.721L91.829,42.127z"/>
	<path d="M84.233,50.93l1.721-2.591l-3.105-0.007l-1.917,2.892l-2.427-0.005l2.983-4.491l13.076,0.035l-2.886,4.344l-2.421-0.008
		l1.819-2.745l-2.719-0.007l-1.716,2.59L84.233,50.93z"/>
	<path d="M80.049,53.956l-3.021-0.51l1.094-1.65l11.646,2.185l-1.386,2.089l-14.524,2.149l1.137-1.713l3.719-0.536L80.049,53.956z
		 M81.077,55.747l3.063-0.43c0.86-0.125,1.912-0.247,2.76-0.35l0.016-0.019c-0.708-0.107-1.626-0.216-2.311-0.331l-2.497-0.425
		L81.077,55.747z"/>
	<path d="M86.133,59.195c-0.217,0.586-0.624,1.349-1.16,2.153c-0.885,1.336-1.907,2.203-3.307,2.878
		c-1.494,0.729-3.41,1.184-5.719,1.178c-2.504-0.006-3.906-0.502-4.522-1.184c-0.649-0.745-0.444-1.873,0.471-3.253
		c0.548-0.825,1.034-1.409,1.391-1.806L86.133,59.195z M74.403,60.766c-0.149,0.135-0.294,0.354-0.428,0.554
		c-0.977,1.441-0.126,2.384,2.999,2.393c2.707,0.018,4.711-0.834,5.62-2.204c0.237-0.355,0.333-0.585,0.363-0.722L74.403,60.766z"/>
	<path d="M71.415,66.496c-0.691,0.426-1.533,1.083-1.986,1.762c-0.488,0.732-0.183,1.12,0.675,1.121
		c0.812,0.003,1.499-0.33,2.625-1.174c1.532-1.168,3.24-1.927,5.144-1.923c2.23,0.007,3.271,1.013,2.168,2.674
		c-0.525,0.793-1.222,1.377-1.852,1.794l-2.15-0.36c0.441-0.284,1.145-0.784,1.599-1.472c0.456-0.69,0.098-1.026-0.582-1.027
		c-0.831-0.002-1.468,0.395-2.708,1.302c-1.678,1.239-3.272,1.821-5.113,1.816c-2.193-0.005-3.45-0.919-2.17-2.851
		c0.534-0.804,1.45-1.597,2.118-1.992L71.415,66.496z"/>
	<path d="M76.185,35.553l1.254-1.89l2.482,0.005l-3.595,5.411l-2.479-0.006l1.276-1.921l-10.595-0.027l1.061-1.6L76.185,35.553z"/>
	<path d="M74.708,41.525l-5.028-0.011l-1.74,2.62l5.023,0.013l-1.051,1.588l-13.078-0.035l1.055-1.587l5.469,0.014l1.743-2.621
		l-5.473-0.014l1.063-1.598l13.075,0.033L74.708,41.525z"/>
	<path d="M69.924,48.727l-13.073-0.035l1.059-1.598l13.077,0.034L69.924,48.727z"/>
	<path d="M58.943,50.134c-0.69,0.426-1.536,1.084-1.987,1.762c-0.484,0.73-0.18,1.119,0.675,1.122
		c0.813,0.001,1.501-0.331,2.627-1.176c1.532-1.166,3.246-1.928,5.144-1.923c2.229,0.007,3.271,1.013,2.17,2.675
		c-0.526,0.792-1.229,1.378-1.852,1.793l-2.149-0.36c0.439-0.282,1.139-0.782,1.595-1.471c0.46-0.69,0.1-1.026-0.579-1.028
		c-0.833-0.003-1.466,0.395-2.713,1.302c-1.678,1.24-3.267,1.822-5.108,1.817c-2.195-0.006-3.456-0.919-2.171-2.853
		c0.532-0.805,1.448-1.596,2.12-1.993L58.943,50.134z"/>
	<path d="M50.287,58.578l14.188-1.638l-1.133,1.703l-5.751,0.52c-1.654,0.151-3.441,0.294-4.835,0.405l-0.014,0.021
		c1.338,0.119,2.804,0.29,4.294,0.472l4.959,0.608l-1.124,1.693l-5.884,0.55c-1.637,0.151-3.109,0.263-4.634,0.364l-0.013,0.02
		c1.381,0.111,2.812,0.269,4.266,0.42l4.975,0.589l-1.076,1.619l-11.867-1.853l1.146-1.724l6.021-0.58
		c1.409-0.132,2.705-0.244,4.259-0.324l0.013-0.02c-1.392-0.129-2.561-0.247-3.768-0.418l-5.179-0.683L50.287,58.578z"/>
	<path d="M47.522,67.803l-3.023-0.51l1.096-1.648l11.649,2.185l-1.39,2.089l-14.523,2.147l1.136-1.711l3.717-0.536L47.522,67.803z
		 M48.547,69.596l3.066-0.432c0.859-0.124,1.91-0.245,2.756-0.348l0.013-0.021c-0.705-0.107-1.624-0.214-2.304-0.331l-2.498-0.424
		L48.547,69.596z"/>
	<path d="M40.281,73.647l5.352,0.014l9.199-2.206l-1.203,1.817l-3.621,0.712c-1.1,0.217-1.895,0.361-2.867,0.537l-0.013,0.021
		c0.712,0.16,1.355,0.329,2.15,0.539l2.672,0.719l-1.188,1.785l-6.083-2.338l-5.451-0.014L40.281,73.647z"/>
</g>
<ellipse fill="none" stroke="#000000" stroke-width="1.0119" stroke-miterlimit="10" cx="148.191" cy="119.976" rx="31.181" ry="47.935"/>
<ellipse fill="none" stroke="#000000" stroke-width="0.4938" stroke-miterlimit="10" cx="150.391" cy="121.345" rx="16.586" ry="21.457"/>
<ellipse cx="150.391" cy="121.345" rx="12.746" ry="18.557"/>
<path fill="none" stroke="#000000" stroke-miterlimit="10" d="M60.626,23.64h106.351c0,0-49.967,33.909-49.967,97.705
	c0,0,3.246,46.565,31.182,46.565H47.626c0,0-32.75-3.521-32.75-54.271S60.626,23.64,60.626,23.64z"/>
<path d="M159.227,35.03l9.833-3.382l-1.04,9.104l-3.227-1.977c0,0-11.705,12.955-14.932,20.135l-4.683-2.081
	c0,0,8.429-13.371,16.806-19.51L159.227,35.03z"/>
<line fill="none" stroke="#000000" stroke-miterlimit="10" x1="148.192" y1="72.043" x2="127.432" y2="72.043"/>
<g>
	<rect x="29.74" y="95.374" fill="none" width="80.026" height="12.387"/>
	<path d="M45.98,100.495c0,3.096-1.877,4.974-4.637,4.974c-2.801,0-4.44-2.115-4.44-4.805c0-2.83,1.807-4.945,4.595-4.945
		C44.397,95.719,45.98,97.89,45.98,100.495z M39.158,100.622c0,1.849,0.868,3.151,2.297,3.151c1.443,0,2.27-1.373,2.27-3.208
		c0-1.694-0.813-3.151-2.283-3.151C39.999,97.414,39.158,98.787,39.158,100.622z"/>
	<path d="M53.833,103.115c0,0.896,0.028,1.625,0.056,2.199H52.04l-0.098-0.967h-0.042c-0.266,0.42-0.911,1.121-2.143,1.121
		c-1.387,0-2.409-0.869-2.409-2.984v-4.02h2.143v3.684c0,0.994,0.322,1.597,1.064,1.597c0.588,0,0.924-0.406,1.064-0.742
		c0.056-0.126,0.07-0.294,0.07-0.462v-4.076h2.143V103.115z"/>
	<path d="M57.918,96.503v1.961h1.527v1.568h-1.527v2.479c0,0.826,0.196,1.205,0.84,1.205c0.266,0,0.476-0.028,0.63-0.057
		l0.014,1.611c-0.28,0.111-0.785,0.182-1.387,0.182c-0.687,0-1.261-0.238-1.597-0.588c-0.392-0.406-0.588-1.064-0.588-2.031v-2.802
		h-0.91v-1.568h0.91v-1.485L57.918,96.503z"/>
	<path d="M62.215,98.464l0.546,2.801c0.14,0.715,0.28,1.471,0.392,2.256h0.028c0.14-0.785,0.336-1.569,0.504-2.241l0.729-2.815
		h1.681l0.686,2.731c0.182,0.771,0.364,1.54,0.504,2.325h0.028c0.098-0.785,0.238-1.555,0.393-2.34l0.588-2.717h2.087l-2.101,6.85
		h-2.003l-0.644-2.409c-0.168-0.673-0.294-1.289-0.434-2.13h-0.028c-0.126,0.854-0.266,1.485-0.448,2.13l-0.687,2.409h-2.003
		l-1.989-6.85H62.215z"/>
	<path d="M77.926,101.812c0,2.507-1.779,3.656-3.614,3.656c-2.003,0-3.544-1.317-3.544-3.53s1.457-3.628,3.656-3.628
		C76.525,98.31,77.926,99.752,77.926,101.812z M72.968,101.882c0,1.176,0.49,2.059,1.4,2.059c0.827,0,1.359-0.826,1.359-2.059
		c0-1.023-0.392-2.06-1.359-2.06C73.346,99.823,72.968,100.874,72.968,101.882z"/>
	<path d="M85.696,103.115c0,0.896,0.028,1.625,0.056,2.199h-1.849l-0.098-0.967h-0.042c-0.266,0.42-0.911,1.121-2.143,1.121
		c-1.387,0-2.409-0.869-2.409-2.984v-4.02h2.143v3.684c0,0.994,0.322,1.597,1.064,1.597c0.588,0,0.924-0.406,1.064-0.742
		c0.056-0.126,0.07-0.294,0.07-0.462v-4.076h2.143V103.115z"/>
	<path d="M87.401,100.649c0-0.854-0.028-1.583-0.056-2.185h1.849l0.098,0.938h0.042c0.28-0.435,0.98-1.093,2.115-1.093
		c1.4,0,2.451,0.925,2.451,2.941v4.063h-2.129v-3.796c0-0.883-0.308-1.485-1.079-1.485c-0.588,0-0.938,0.406-1.078,0.799
		c-0.056,0.126-0.084,0.336-0.084,0.532v3.95h-2.129V100.649z"/>
	<path d="M102.245,95.369v7.9c0,0.77,0.028,1.582,0.056,2.045h-1.891l-0.098-1.009h-0.028c-0.435,0.771-1.261,1.163-2.144,1.163
		c-1.625,0-2.927-1.388-2.927-3.517c-0.014-2.311,1.429-3.642,3.067-3.642c0.841,0,1.499,0.294,1.807,0.771h0.028v-3.712H102.245z
		 M100.115,101.364c0-0.112-0.014-0.267-0.028-0.378c-0.126-0.575-0.588-1.051-1.247-1.051c-0.967,0-1.471,0.868-1.471,1.947
		c0,1.162,0.574,1.891,1.457,1.891c0.616,0,1.106-0.42,1.233-1.022c0.042-0.154,0.056-0.309,0.056-0.49V101.364z"/>
</g>
<g>
	<rect x="45.935" y="141.916" fill="none" width="63.236" height="22.958"/>
	<path d="M57.23,142.351h1.835v6.549h3.214v1.535H57.23V142.351z"/>
	<path d="M68.172,147.017h-2.975v1.919h3.322v1.499h-5.157v-8.084h4.989v1.5h-3.154v1.679h2.975V147.017z"/>
	<path d="M69.771,142.351h4.941v1.5h-3.106v1.847h2.902v1.487h-2.902v3.25h-1.835V142.351z"/>
	<path d="M77.653,143.886h-2.171v-1.535h6.213v1.535h-2.207v6.549h-1.835V143.886z"/>
	<path d="M86.185,143.886h-2.171v-1.535h6.213v1.535H88.02v6.549h-1.835V143.886z"/>
	<path d="M98.253,146.309c0,2.651-1.607,4.258-3.97,4.258c-2.398,0-3.802-1.812-3.802-4.114c0-2.422,1.547-4.232,3.934-4.232
		C96.898,142.22,98.253,144.079,98.253,146.309z M92.413,146.417c0,1.583,0.744,2.698,1.967,2.698c1.235,0,1.943-1.175,1.943-2.747
		c0-1.451-0.696-2.697-1.955-2.697C93.132,143.671,92.413,144.846,92.413,146.417z"/>
	<path d="M63.963,156.751h1.835v6.549h3.214v1.535h-5.049V156.751z"/>
	<path d="M74.904,161.417H71.93v1.918h3.322v1.5h-5.157v-8.084h4.989v1.499H71.93v1.679h2.975V161.417z"/>
	<path d="M78.386,162.76l-0.576,2.075h-1.895l2.47-8.084h2.399l2.507,8.084h-1.967l-0.624-2.075H78.386z M80.437,161.393
		l-0.504-1.716c-0.144-0.479-0.288-1.079-0.408-1.559h-0.024c-0.12,0.479-0.24,1.092-0.372,1.559l-0.479,1.716H80.437z"/>
	<path d="M84.375,156.859c0.672-0.107,1.547-0.168,2.471-0.168c1.535,0,2.531,0.276,3.31,0.864c0.84,0.624,1.367,1.619,1.367,3.046
		c0,1.547-0.563,2.615-1.343,3.274c-0.852,0.708-2.146,1.044-3.73,1.044c-0.947,0-1.619-0.061-2.075-0.121V156.859z M86.21,163.456
		c0.156,0.036,0.408,0.036,0.636,0.036c1.655,0.012,2.734-0.899,2.734-2.83c0.012-1.68-0.971-2.566-2.542-2.566
		c-0.408,0-0.672,0.035-0.828,0.071V163.456z"/>
</g>
<g>
	<rect x="59.052" y="111.094" fill="none" width="26.311" height="28.808"/>
	<path d="M73.479,138.302v-5.475H62.346v-4.564l11.801-17.273h4.379v17.256h3.377v4.582h-3.377v5.475H73.479z M73.479,128.246
		v-9.297l-6.253,9.297H73.479z"/>
</g>
<line fill="none" stroke="#000000" stroke-width="3" stroke-miterlimit="10" x1="55.9" y1="30.648" x2="66.644" y2="30.648"/>
<line fill="none" stroke="#000000" stroke-width="3" stroke-miterlimit="10" x1="145.018" y1="30.648" x2="155.762" y2="30.648"/>
<line fill="none" stroke="#000000" stroke-width="3" stroke-miterlimit="10" x1="35.19" y1="56.549" x2="45.935" y2="56.549"/>
<line fill="none" stroke="#000000" stroke-width="3" stroke-miterlimit="10" x1="125.293" y1="56.549" x2="136.039" y2="56.549"/>
<line fill="none" stroke="#000000" stroke-width="3" stroke-miterlimit="10" x1="107.187" y1="92.549" x2="117.932" y2="92.549"/>
<line fill="none" stroke="#000000" stroke-width="3" stroke-miterlimit="10" x1="18.996" y1="92.549" x2="29.74" y2="92.549"/>
<line fill="none" stroke="#000000" stroke-width="3" stroke-miterlimit="10" x1="18.996" y1="139.363" x2="29.74" y2="139.363"/>
<line fill="none" stroke="#000000" stroke-width="3" stroke-miterlimit="10" x1="109.051" y1="139.363" x2="119.795" y2="139.363"/>
<path d="M189.92,189.92H0V0H189.92V189.92z M5.017,184.903h179.886V5.017H5.017V184.903z"/>
</svg>
