<?xml version="1.0" encoding="utf-8"?>
<!-- Generator: Adobe Illustrator 16.0.0, SVG Export Plug-In . SVG Version: 6.00 Build 0)  -->
<!DOCTYPE svg PUBLIC "-//W3C//DTD SVG 1.1//EN" "http://www.w3.org/Graphics/SVG/1.1/DTD/svg11.dtd">
<svg version="1.1" id="Layer_1" xmlns="http://www.w3.org/2000/svg" xmlns:xlink="http://www.w3.org/1999/xlink" x="0px" y="0px"
	 width="189.92px" height="189.92px" viewBox="0 0 189.92 189.92" enable-background="new 0 0 189.92 189.92" xml:space="preserve">
<g>
	<path d="M63.059,35.677c0.836-0.068,2.01-0.115,3.665-0.102c1.677,0.015,2.87,0.191,3.679,0.532
		c0.771,0.323,1.298,0.848,1.309,1.461c0.015,0.615-0.367,1.132-1.072,1.479c-0.917,0.449-2.284,0.642-3.887,0.628
		c-0.358-0.002-0.679-0.013-0.927-0.035l0.043,2.241l-2.691-0.021L63.059,35.677z M65.805,38.543
		c0.229,0.03,0.518,0.042,0.907,0.044c1.442,0.013,2.324-0.361,2.313-1.004c-0.012-0.575-0.784-0.926-2.138-0.938
		c-0.554-0.003-0.925,0.021-1.118,0.047L65.805,38.543z"/>
	<path d="M73.409,35.761c0.873-0.067,2.174-0.113,3.616-0.101c1.778,0.015,3.03,0.166,3.891,0.524
		c0.719,0.303,1.119,0.743,1.13,1.321c0.014,0.801-1.062,1.339-2.089,1.526v0.026c0.841,0.185,1.312,0.606,1.627,1.186
		c0.385,0.711,0.776,1.53,1.011,1.775l-2.776-0.022c-0.197-0.179-0.495-0.694-0.867-1.465c-0.333-0.786-0.854-1.004-1.958-1.021
		l-0.821-0.007l0.049,2.464l-2.69-0.023L73.409,35.761z M76.153,38.479l1.069,0.009c1.354,0.012,2.146-0.335,2.139-0.885
		c-0.014-0.577-0.768-0.871-2.015-0.89c-0.657-0.005-1.031,0.02-1.228,0.036L76.153,38.479z"/>
	<path d="M86.701,35.786l0.121,6.267l-2.726-0.022l-0.119-6.268L86.701,35.786z"/>
	<path d="M89.174,42.073l-0.121-6.268l3.171,0.025l2.537,2.318c0.727,0.665,1.453,1.453,2.001,2.164l0.054-0.001
		c-0.193-0.827-0.264-1.675-0.283-2.613l-0.037-1.832l2.496,0.021l0.123,6.265l-2.851-0.022l-2.611-2.439
		c-0.725-0.675-1.525-1.49-2.126-2.228l-0.056,0.009c0.089,0.828,0.139,1.713,0.161,2.734l0.035,1.887L89.174,42.073z"/>
	<path d="M103.687,37.115l-3.225-0.026l-0.023-1.189l9.227,0.075l0.021,1.191l-3.277-0.027l0.1,5.077l-2.725-0.024L103.687,37.115z"
		/>
	<path d="M113.837,36.009l0.121,6.268l-2.725-0.023l-0.121-6.268L113.837,36.009z"/>
	<path d="M116.312,42.295l-0.123-6.269l3.171,0.027l2.537,2.317c0.728,0.666,1.455,1.452,2.003,2.163l0.053,0.001
		c-0.194-0.829-0.267-1.675-0.285-2.614l-0.035-1.832l2.497,0.02l0.119,6.266l-2.848-0.022l-2.614-2.439
		c-0.724-0.676-1.523-1.49-2.124-2.229l-0.054,0.008c0.087,0.83,0.137,1.713,0.158,2.735l0.035,1.888L116.312,42.295z"/>
	<path d="M138.626,42.189c-0.834,0.143-2.416,0.334-4.002,0.321c-2.188-0.018-3.778-0.319-4.894-0.887
		c-1.116-0.548-1.735-1.372-1.736-2.291c-0.022-2.084,2.857-3.251,6.792-3.218c1.552,0.013,2.744,0.18,3.337,0.333l-0.55,1.131
		c-0.661-0.155-1.482-0.281-2.8-0.293c-2.259-0.02-3.959,0.637-3.933,1.994c0.025,1.294,1.589,2.067,3.816,2.087
		c0.623,0.005,1.121-0.029,1.333-0.084l-0.026-1.31l-1.851-0.015l-0.021-1.106l4.47,0.035L138.626,42.189z"/>
	<path d="M75.167,46.938c0.874-0.068,2.17-0.114,3.613-0.102c1.779,0.015,3.029,0.164,3.892,0.524
		c0.719,0.304,1.117,0.745,1.128,1.321c0.014,0.799-1.06,1.338-2.09,1.527l0.002,0.026c0.84,0.185,1.313,0.606,1.623,1.186
		c0.391,0.71,0.778,1.53,1.016,1.774l-2.777-0.021c-0.199-0.179-0.496-0.693-0.865-1.468c-0.336-0.784-0.854-1.001-1.961-1.02
		l-0.82-0.007l0.048,2.464l-2.688-0.021L75.167,46.938z M77.911,49.656l1.066,0.008c1.354,0.013,2.147-0.335,2.137-0.884
		c-0.01-0.576-0.764-0.871-2.009-0.89c-0.66-0.006-1.036,0.019-1.23,0.037L77.911,49.656z"/>
	<path d="M92.941,50.618l-4.413-0.038l0.025,1.488l4.935,0.041l0.021,1.163l-7.657-0.063l-0.12-6.266l7.408,0.061l0.022,1.16
		l-4.685-0.038l0.026,1.302l4.417,0.037L92.941,50.618z"/>
	<path d="M98.132,51.699l-0.825,1.604l-2.812-0.023l3.545-6.237l3.563,0.029l3.844,6.297l-2.92-0.022l-0.96-1.617L98.132,51.699z
		 M101.158,50.667l-0.774-1.338c-0.22-0.373-0.443-0.839-0.628-1.212h-0.039c-0.169,0.37-0.338,0.844-0.525,1.203l-0.688,1.324
		L101.158,50.667z"/>
	<path d="M106.937,47.198c0.995-0.075,2.293-0.111,3.666-0.101c2.279,0.018,3.763,0.245,4.929,0.709
		c1.254,0.496,2.054,1.273,2.075,2.379c0.021,1.199-0.797,2.021-1.945,2.521c-1.254,0.54-3.17,0.783-5.521,0.764
		c-1.408-0.011-2.407-0.065-3.084-0.119L106.937,47.198z M109.759,52.333c0.234,0.031,0.606,0.034,0.947,0.037
		c2.456,0.029,4.045-0.664,4.016-2.162c-0.009-1.301-1.481-2.002-3.814-2.019c-0.605-0.006-0.996,0.019-1.227,0.044L109.759,52.333z
		"/>
	<path d="M119.52,52.024c0.733,0.202,1.857,0.405,3.017,0.414c1.246,0.012,1.899-0.254,1.893-0.662
		c-0.009-0.391-0.582-0.617-2.03-0.9c-2.002-0.378-3.311-0.967-3.329-1.878c-0.021-1.069,1.672-1.873,4.5-1.849
		c1.357,0.011,2.356,0.168,3.074,0.339l-0.587,1.14c-0.483-0.125-1.34-0.308-2.517-0.317c-1.172-0.01-1.74,0.264-1.732,0.589
		c0.005,0.401,0.688,0.582,2.244,0.903c2.128,0.426,3.134,1.012,3.152,1.895c0.02,1.05-1.513,1.93-4.807,1.901
		c-1.37-0.01-2.727-0.207-3.409-0.407L119.52,52.024z"/>
	<path d="M66.976,59.14l-3.226-0.024l-0.022-1.192l9.227,0.075l0.021,1.192l-3.277-0.028l0.1,5.078l-2.726-0.023L66.976,59.14z"/>
	<path d="M77.126,58.033l0.045,2.409l4.473,0.035l-0.047-2.407l2.705,0.023l0.121,6.265l-2.705-0.022l-0.053-2.621l-4.468-0.036
		l0.051,2.621l-2.727-0.021L74.4,58.01L77.126,58.033z"/>
	<path d="M89.404,58.133l0.121,6.267L86.8,64.379l-0.123-6.268L89.404,58.133z"/>
	<path d="M91.939,62.96c0.734,0.202,1.859,0.406,3.017,0.416c1.248,0.01,1.901-0.254,1.894-0.663
		c-0.008-0.39-0.582-0.617-2.03-0.901c-2.002-0.379-3.313-0.965-3.333-1.877c-0.019-1.069,1.677-1.875,4.507-1.849
		c1.354,0.01,2.354,0.168,3.069,0.341l-0.585,1.139c-0.482-0.125-1.34-0.309-2.517-0.319c-1.175-0.009-1.738,0.266-1.73,0.589
		c0.007,0.401,0.688,0.582,2.242,0.903c2.125,0.427,3.136,1.013,3.153,1.895c0.019,1.052-1.513,1.932-4.809,1.904
		c-1.369-0.012-2.728-0.209-3.406-0.41L91.939,62.96z"/>
	<path d="M106.378,64.539l-2.969-6.29l2.904,0.023l0.956,2.591c0.283,0.747,0.548,1.558,0.755,2.192l0.037,0.001
		c0.183-0.677,0.454-1.43,0.738-2.197l0.969-2.56l2.883,0.024l1.014,2.649c0.281,0.737,0.488,1.408,0.683,2.106h0.036
		c0.164-0.696,0.414-1.427,0.65-2.169l0.93-2.559l2.761,0.022l-2.979,6.242l-2.938-0.024l-1.068-2.705
		c-0.242-0.635-0.448-1.221-0.606-1.938h-0.037c-0.196,0.705-0.381,1.297-0.654,1.927l-1.088,2.688L106.378,64.539z"/>
	<path d="M122.065,63.06l-0.827,1.601l-2.812-0.024l3.545-6.235l3.563,0.029l3.845,6.298l-2.92-0.024l-0.959-1.618L122.065,63.06z
		 M125.089,62.024l-0.774-1.336c-0.221-0.373-0.443-0.839-0.63-1.212l-0.037-0.001c-0.168,0.37-0.337,0.842-0.524,1.203
		l-0.687,1.325L125.089,62.024z"/>
	<path d="M132.074,64.749l-0.05-2.566l-3.865-3.732l3.1,0.024l1.257,1.518c0.385,0.458,0.64,0.796,0.95,1.208h0.035
		c0.261-0.39,0.54-0.75,0.886-1.193l1.179-1.497l3.049,0.024l-3.885,3.623l0.051,2.614L132.074,64.749z"/>
</g>
<ellipse fill="none" stroke="#000000" stroke-width="1.0119" stroke-miterlimit="10" cx="144.181" cy="119.712" rx="31.181" ry="47.935"/>
<ellipse fill="none" stroke="#000000" stroke-width="0.4938" stroke-miterlimit="10" cx="141.981" cy="121.082" rx="16.586" ry="21.457"/>
<ellipse cx="141.981" cy="121.082" rx="12.746" ry="18.557"/>
<path d="M33.38,34.767l-9.833-3.382l1.04,9.104l3.227-1.977c0,0,11.705,12.955,14.932,20.135l4.683-2.081
	c0,0-8.429-13.371-16.806-19.51L33.38,34.767z"/>
<line fill="none" stroke="#000000" stroke-miterlimit="10" x1="63.417" y1="71.779" x2="144.18" y2="71.779"/>
<g>
	<rect x="29.741" y="85.11" fill="none" width="80.026" height="12.387"/>
	<path d="M45.235,85.609v9.44h-2.144v-9.44H45.235z"/>
	<path d="M47.054,90.385c0-0.854-0.028-1.583-0.056-2.186h1.849l0.098,0.938h0.042c0.28-0.434,0.98-1.093,2.115-1.093
		c1.4,0,2.451,0.925,2.451,2.942v4.062h-2.129v-3.796c0-0.883-0.308-1.484-1.078-1.484c-0.588,0-0.939,0.406-1.079,0.798
		c-0.056,0.126-0.084,0.337-0.084,0.532v3.95h-2.129V90.385z"/>
	<path d="M56.462,88.2l0.546,2.802c0.14,0.714,0.28,1.471,0.392,2.255h0.028c0.14-0.784,0.336-1.568,0.504-2.241l0.729-2.815h1.681
		l0.686,2.731c0.182,0.771,0.364,1.541,0.504,2.325h0.028c0.098-0.784,0.238-1.555,0.393-2.339l0.588-2.718h2.087l-2.101,6.85
		h-2.003L59.88,92.64c-0.168-0.672-0.294-1.288-0.434-2.129h-0.028c-0.126,0.854-0.266,1.484-0.448,2.129l-0.687,2.409H56.28
		l-1.989-6.85H56.462z"/>
	<path d="M72.173,91.547c0,2.508-1.779,3.656-3.614,3.656c-2.003,0-3.544-1.316-3.544-3.53c0-2.213,1.457-3.628,3.656-3.628
		C70.772,88.045,72.173,89.489,72.173,91.547z M67.215,91.618c0,1.177,0.49,2.06,1.4,2.06c0.827,0,1.359-0.827,1.359-2.06
		c0-1.022-0.392-2.059-1.359-2.059C67.593,89.559,67.215,90.609,67.215,91.618z"/>
	<path d="M79.943,92.85c0,0.896,0.028,1.625,0.056,2.199H78.15l-0.098-0.966H78.01c-0.266,0.42-0.911,1.12-2.143,1.12
		c-1.387,0-2.409-0.868-2.409-2.983V88.2h2.143v3.685c0,0.994,0.322,1.597,1.064,1.597c0.588,0,0.924-0.406,1.064-0.742
		c0.056-0.127,0.07-0.295,0.07-0.463V88.2h2.143V92.85z"/>
	<path d="M81.648,90.385c0-0.854-0.028-1.583-0.056-2.186h1.849l0.098,0.938h0.042c0.28-0.434,0.98-1.093,2.115-1.093
		c1.4,0,2.451,0.925,2.451,2.942v4.062h-2.129v-3.796c0-0.883-0.308-1.484-1.079-1.484c-0.588,0-0.938,0.406-1.078,0.798
		c-0.056,0.126-0.084,0.337-0.084,0.532v3.95h-2.129V90.385z"/>
	<path d="M96.492,85.104v7.9c0,0.771,0.027,1.583,0.057,2.045h-1.892l-0.098-1.008h-0.028c-0.435,0.77-1.261,1.162-2.144,1.162
		c-1.625,0-2.927-1.387-2.927-3.516c-0.014-2.312,1.429-3.643,3.067-3.643c0.841,0,1.499,0.295,1.807,0.771h0.028v-3.712H96.492z
		 M94.362,91.099c0-0.111-0.014-0.266-0.028-0.378c-0.126-0.574-0.588-1.051-1.247-1.051c-0.967,0-1.471,0.869-1.471,1.947
		c0,1.163,0.574,1.891,1.457,1.891c0.616,0,1.106-0.42,1.233-1.022c0.042-0.153,0.056-0.308,0.056-0.49V91.099z"/>
</g>
<g>
	<rect x="40.936" y="134.652" fill="none" width="63.236" height="22.958"/>
	<path d="M51.336,135.087v3.106h3.01v-3.106h1.823v8.084h-1.823v-3.383h-3.01v3.383h-1.835v-8.084H51.336z"/>
	<path d="M62.579,139.753h-2.975v1.919h3.322v1.499h-5.157v-8.084h4.989v1.499h-3.154v1.68h2.975V139.753z"/>
	<path d="M66.06,141.096l-0.576,2.075H63.59l2.47-8.084h2.399l2.507,8.084h-1.967l-0.624-2.075H66.06z M68.111,139.729l-0.504-1.715
		c-0.144-0.479-0.288-1.079-0.408-1.56h-0.024c-0.12,0.48-0.24,1.092-0.372,1.56l-0.479,1.715H68.111z"/>
	<path d="M72.049,135.196c0.672-0.108,1.547-0.168,2.471-0.168c1.535,0,2.531,0.275,3.31,0.863c0.84,0.624,1.367,1.619,1.367,3.046
		c0,1.548-0.563,2.615-1.343,3.274c-0.852,0.708-2.146,1.044-3.73,1.044c-0.947,0-1.619-0.061-2.075-0.12V135.196z M73.884,141.792
		c0.156,0.036,0.408,0.036,0.636,0.036c1.655,0.013,2.734-0.899,2.734-2.83c0.012-1.679-0.971-2.566-2.542-2.566
		c-0.408,0-0.672,0.036-0.828,0.071V141.792z"/>
	<path d="M83.917,136.623h-2.171v-1.535h6.213v1.535h-2.207v6.549h-1.835V136.623z"/>
	<path d="M95.985,139.045c0,2.65-1.607,4.258-3.97,4.258c-2.399,0-3.802-1.812-3.802-4.114c0-2.422,1.547-4.233,3.934-4.233
		C94.63,134.956,95.985,136.815,95.985,139.045z M90.144,139.154c0,1.583,0.744,2.698,1.967,2.698c1.235,0,1.943-1.176,1.943-2.747
		c0-1.451-0.696-2.698-1.955-2.698C90.864,136.407,90.144,137.583,90.144,139.154z"/>
	<path d="M58.963,149.488h1.835v6.548h3.214v1.535h-5.049V149.488z"/>
	<path d="M69.905,154.153H66.93v1.919h3.322v1.499h-5.157v-8.083h4.989v1.499H66.93v1.679h2.975V154.153z"/>
	<path d="M73.386,155.497l-0.576,2.074h-1.895l2.47-8.083h2.399l2.507,8.083h-1.967l-0.624-2.074H73.386z M75.438,154.129
		l-0.504-1.716c-0.144-0.479-0.288-1.079-0.408-1.559h-0.024c-0.12,0.479-0.24,1.091-0.372,1.559l-0.479,1.716H75.438z"/>
	<path d="M79.375,149.595c0.672-0.107,1.547-0.168,2.471-0.168c1.535,0,2.531,0.276,3.31,0.864c0.84,0.623,1.367,1.619,1.367,3.046
		c0,1.547-0.563,2.614-1.343,3.274c-0.852,0.707-2.146,1.043-3.73,1.043c-0.947,0-1.619-0.06-2.075-0.12V149.595z M81.21,156.192
		c0.156,0.036,0.408,0.036,0.636,0.036c1.655,0.012,2.734-0.899,2.734-2.831c0.012-1.679-0.971-2.566-2.542-2.566
		c-0.408,0-0.672,0.036-0.828,0.072V156.192z"/>
</g>
<g>
	<rect x="59.053" y="100.831" fill="none" width="26.311" height="28.808"/>
	<path d="M63.33,121.042l5.195-0.538c0.148,1.175,0.587,2.105,1.317,2.792c0.729,0.687,1.571,1.03,2.523,1.03
		c1.088,0,2.01-0.442,2.765-1.327c0.754-0.884,1.132-2.217,1.132-3.998c0-1.67-0.375-2.923-1.123-3.758
		c-0.749-0.835-1.723-1.252-2.922-1.252c-1.497,0-2.839,0.662-4.026,1.985l-4.23-0.612l2.672-14.157h13.786v4.88h-9.834l-0.816,4.62
		c1.163-0.581,2.35-0.872,3.563-0.872c2.313,0,4.273,0.841,5.882,2.523c1.608,1.683,2.412,3.865,2.412,6.55
		c0,2.239-0.649,4.236-1.948,5.993c-1.769,2.399-4.225,3.6-7.366,3.6c-2.511,0-4.559-0.674-6.142-2.022
		C64.585,125.13,63.639,123.319,63.33,121.042z"/>
</g>
<line fill="none" stroke="#000000" stroke-width="3" stroke-miterlimit="10" x1="135.35" y1="30.385" x2="124.606" y2="30.385"/>
<line fill="none" stroke="#000000" stroke-width="3" stroke-miterlimit="10" x1="46.232" y1="30.385" x2="35.488" y2="30.385"/>
<line fill="none" stroke="#000000" stroke-width="3" stroke-miterlimit="10" x1="156.06" y1="56.285" x2="145.315" y2="56.285"/>
<line fill="none" stroke="#000000" stroke-width="3" stroke-miterlimit="10" x1="65.957" y1="56.285" x2="55.211" y2="56.285"/>
<path fill="none" stroke="#000000" stroke-miterlimit="10" d="M176.374,113.376c0-50.75-45.75-90-45.75-90H24.273
	c0,0,24.45,16.593,39.144,48.402"/>
<path fill="none" stroke="#000000" stroke-miterlimit="10" d="M63.417,71.778"/>
<path fill="none" stroke="#000000" stroke-miterlimit="10" d="M63.417,71.778h-17.48c0,0-33.807,0.757-33.807,49.303
	c0,48.545,33.807,46.565,33.807,46.565h99.379"/>
<path d="M189.92,189.92H0V0H189.92V189.92z M5.017,184.903h179.886V5.017H5.017V184.903z"/>
</svg>
