<?xml version="1.0" encoding="utf-8"?>
<!-- Generator: Adobe Illustrator 16.0.0, SVG Export Plug-In . SVG Version: 6.00 Build 0)  -->
<!DOCTYPE svg PUBLIC "-//W3C//DTD SVG 1.1//EN" "http://www.w3.org/Graphics/SVG/1.1/DTD/svg11.dtd">
<svg version="1.1" id="Layer_1" xmlns="http://www.w3.org/2000/svg" xmlns:xlink="http://www.w3.org/1999/xlink" x="0px" y="0px"
	 width="189.92px" height="189.92px" viewBox="0 0 189.92 189.92" enable-background="new 0 0 189.92 189.92" xml:space="preserve">
<g>
	<path d="M76.852,66.414c-0.182-0.404-0.354-0.974-0.461-1.781c-0.107-0.817,0.096-1.409,0.604-1.82
		c0.482-0.393,1.325-0.676,2.354-0.711c1.034-0.037,1.935,0.122,2.574,0.449c0.827,0.424,1.259,1.081,1.362,1.863
		c0.023,0.175,0.032,0.332,0.016,0.453l3.765-0.133l0.176,1.313L76.852,66.414z M81.456,64.934c0.031-0.114,0.029-0.256,0.002-0.445
		c-0.09-0.704-0.79-1.115-1.871-1.078c-0.967,0.035-1.494,0.428-1.408,1.09c0.038,0.27,0.107,0.449,0.166,0.543L81.456,64.934z"/>
	<path d="M76.176,61.364c-0.182-0.423-0.362-1.054-0.452-1.759c-0.118-0.867,0.037-1.485,0.573-1.922
		c0.45-0.366,1.161-0.584,2.131-0.617c1.349-0.047,2.338,0.451,2.733,0.942l0.046-0.002c0.242-0.419,0.916-0.669,1.865-0.853
		c1.164-0.223,2.513-0.455,2.905-0.581l0.182,1.354c-0.286,0.105-1.128,0.275-2.396,0.496c-1.297,0.201-1.624,0.467-1.565,1.005
		l0.053,0.401l4.143-0.146l0.174,1.313L76.176,61.364z M80.531,59.891l-0.068-0.521c-0.089-0.662-0.734-1.03-1.656-0.999
		c-0.971,0.034-1.405,0.419-1.339,1.026c0.042,0.321,0.115,0.502,0.157,0.596L80.531,59.891z"/>
	<path d="M75.17,54.882l10.534-0.372l0.176,1.33l-10.535,0.371L75.17,54.882z"/>
	<path d="M85.552,53.361l-10.535,0.373l-0.207-1.547l3.7-1.354c1.06-0.387,2.329-0.781,3.482-1.084l-0.007-0.026
		c-1.375,0.136-2.797,0.213-4.373,0.269l-3.079,0.109l-0.161-1.217L84.9,48.512l0.187,1.391l-3.895,1.395
		c-1.081,0.387-2.387,0.818-3.583,1.148l0.021,0.026c1.385-0.085,2.87-0.153,4.587-0.214l3.171-0.113L85.552,53.361z"/>
	<path d="M76.067,46.533l0.21,1.574l-1.998,0.07l-0.604-4.502l2.002-0.07l0.214,1.6l8.533-0.303l0.174,1.33L76.067,46.533z"/>
	<path d="M73.406,41.64l10.532-0.372l0.177,1.33l-10.532,0.373L73.406,41.64z"/>
	<path d="M83.785,40.119l-10.534,0.373l-0.206-1.547l3.7-1.354c1.061-0.387,2.326-0.781,3.479-1.084l-0.002-0.025
		c-1.381,0.136-2.8,0.213-4.375,0.27l-3.079,0.109l-0.164-1.22l10.533-0.372l0.186,1.391l-3.896,1.396
		c-1.08,0.387-2.387,0.816-3.583,1.146l0.019,0.025c1.387-0.084,2.87-0.151,4.586-0.213l3.174-0.111L83.785,40.119z"/>
	<path d="M81.849,29.245c0.305,0.399,0.754,1.161,0.854,1.935c0.143,1.068-0.238,1.857-1.104,2.431
		c-0.834,0.571-2.171,0.915-3.719,0.961c-3.503,0.114-5.691-1.231-5.946-3.151c-0.102-0.757,0.086-1.346,0.298-1.643l1.946,0.211
		c-0.209,0.33-0.357,0.738-0.272,1.379c0.145,1.104,1.384,1.899,3.663,1.818c2.175-0.076,3.354-0.879,3.21-1.965
		c-0.04-0.304-0.136-0.545-0.246-0.646l-2.201,0.08l0.121,0.902l-1.86,0.064l-0.293-2.182L81.849,29.245z"/>
	<path d="M94.841,59.948c-0.185-0.423-0.365-1.052-0.457-1.757c-0.113-0.869,0.036-1.486,0.576-1.922
		c0.455-0.367,1.164-0.584,2.132-0.617c1.343-0.047,2.337,0.449,2.733,0.941l0.045-0.002c0.245-0.418,0.915-0.67,1.865-0.85
		c1.164-0.227,2.513-0.456,2.903-0.584l0.185,1.355c-0.285,0.105-1.126,0.275-2.403,0.494c-1.291,0.203-1.615,0.467-1.561,1.008
		l0.054,0.399l4.142-0.146l0.177,1.311L94.841,59.948z M99.195,58.475l-0.071-0.521c-0.084-0.661-0.731-1.03-1.655-0.997
		c-0.968,0.033-1.404,0.416-1.339,1.023c0.043,0.322,0.114,0.504,0.161,0.598L99.195,58.475z"/>
	<path d="M99.628,51.098l0.284,2.154l2.5-0.088l-0.319-2.406l1.953-0.069l0.498,3.737l-10.533,0.371l-0.481-3.615l1.95-0.068
		l0.306,2.285l2.188-0.076l-0.285-2.156L99.628,51.098z"/>
	<path d="M101.036,48.513l2.763,0.323l0.183,1.371L93.21,48.791l-0.23-1.74l10.289-2.188l0.191,1.424l-2.646,0.55L101.036,48.513z
		 M99.062,47.09l-2.189,0.443c-0.61,0.127-1.377,0.26-1.989,0.367l0.002,0.02c0.635,0.064,1.445,0.123,2.065,0.196l2.279,0.269
		L99.062,47.09z"/>
	<path d="M92.772,44.445c-0.205-0.481-0.368-1.112-0.46-1.783c-0.148-1.111,0.115-1.846,0.804-2.438
		c0.735-0.637,1.979-1.064,3.838-1.131c2.019-0.07,3.466,0.287,4.397,0.822c1.006,0.586,1.566,1.507,1.719,2.654
		c0.095,0.688,0.079,1.176,0.046,1.509L92.772,44.445z M101.187,42.813c0.035-0.115,0.012-0.297-0.012-0.463
		c-0.146-1.199-1.435-1.939-3.954-1.852c-2.187,0.07-3.249,0.823-3.095,1.961c0.039,0.297,0.11,0.485,0.171,0.597L101.187,42.813z"
		/>
	<path d="M99.896,38.068c0.282-0.367,0.536-0.926,0.458-1.49c-0.076-0.609-0.576-0.914-1.263-0.891
		c-0.656,0.023-0.989,0.314-1.354,1.035c-0.479,0.995-1.364,1.662-2.896,1.717c-1.796,0.064-3.282-0.723-3.464-2.102
		c-0.09-0.662,0.098-1.156,0.327-1.516l1.964,0.229c-0.17,0.242-0.411,0.67-0.334,1.244c0.074,0.571,0.58,0.835,1.127,0.814
		c0.674-0.023,0.925-0.365,1.342-1.14c0.549-1.058,1.456-1.577,2.939-1.632c1.764-0.062,3.364,0.643,3.575,2.25
		c0.094,0.668-0.132,1.339-0.415,1.682L99.896,38.068z"/>
	<path d="M116.011,63.332l0.214,1.574l-2.004,0.07l-0.603-4.502l2.002-0.07l0.212,1.6l8.533-0.303l0.177,1.33L116.011,63.332z"/>
	<path d="M113.348,58.438l4.049-0.141l-0.294-2.184l-4.045,0.144l-0.174-1.319l10.53-0.373l0.175,1.32l-4.404,0.156l0.291,2.18
		l4.404-0.156l0.18,1.33l-10.534,0.375L113.348,58.438z"/>
	<path d="M112.55,52.447l10.531-0.373l0.18,1.33l-10.534,0.373L112.55,52.447z"/>
	<path d="M120.468,50.97c0.283-0.368,0.538-0.927,0.462-1.491c-0.082-0.609-0.577-0.914-1.265-0.891
		c-0.654,0.024-0.992,0.314-1.354,1.035c-0.479,0.996-1.364,1.664-2.896,1.719c-1.798,0.063-3.283-0.723-3.466-2.105
		c-0.09-0.66,0.098-1.155,0.331-1.514l1.963,0.229c-0.173,0.242-0.413,0.669-0.337,1.243c0.076,0.573,0.584,0.835,1.125,0.815
		c0.674-0.023,0.924-0.365,1.341-1.139c0.552-1.059,1.457-1.58,2.94-1.633c1.768-0.061,3.368,0.641,3.583,2.25
		c0.088,0.668-0.137,1.34-0.424,1.681L120.468,50.97z"/>
	<path d="M121.987,43.85l-10.348,1.764l-0.19-1.418l4.282-0.596c1.234-0.176,2.58-0.345,3.629-0.479l-0.002-0.018
		c-1.154-0.056-2.44-0.149-3.754-0.25l-4.382-0.344l-0.187-1.407l4.375-0.626c1.22-0.174,2.33-0.309,3.49-0.439l-0.003-0.017
		c-1.185-0.046-2.433-0.132-3.699-0.208l-4.379-0.326l-0.178-1.348l10.734,1.141l0.189,1.434l-4.466,0.656
		c-1.048,0.15-2.019,0.279-3.213,0.393l0.003,0.018c1.2,0.061,2.214,0.121,3.295,0.223l4.607,0.396L121.987,43.85z"/>
	<path d="M118.259,36.276l2.76,0.323l0.182,1.373l-10.768-1.418l-0.232-1.738l10.291-2.189l0.188,1.426l-2.645,0.548L118.259,36.276
		z M116.278,34.854l-2.186,0.444c-0.609,0.126-1.377,0.258-1.99,0.368l0.002,0.018c0.633,0.063,1.443,0.123,2.066,0.195l2.281,0.27
		L116.278,34.854z"/>
	<path d="M120.313,31.311l-4.313,0.154l-5.974,2.07l-0.204-1.512l2.454-0.689c0.741-0.211,1.289-0.352,1.959-0.523l-0.002-0.017
		c-0.678-0.108-1.306-0.226-2.077-0.374l-2.611-0.498l-0.199-1.488l6.4,1.713l4.393-0.155L120.313,31.311z"/>
</g>
<g>
	<rect x="37.754" y="134.651" fill="none" width="63.236" height="22.958"/>
	<path d="M44.987,135.195c0.588-0.097,1.463-0.168,2.435-0.168c1.2,0,2.039,0.18,2.615,0.636c0.479,0.384,0.744,0.947,0.744,1.69
		c0,1.032-0.732,1.739-1.427,1.991v0.036c0.563,0.228,0.875,0.768,1.079,1.511c0.252,0.912,0.504,1.967,0.66,2.279h-1.871
		c-0.132-0.229-0.324-0.888-0.564-1.883c-0.216-1.008-0.563-1.283-1.307-1.296h-0.552v3.179h-1.811V135.195z M46.798,138.673h0.72
		c0.912,0,1.451-0.455,1.451-1.163c0-0.743-0.504-1.115-1.343-1.127c-0.444,0-0.696,0.035-0.828,0.06V138.673z"/>
	<path d="M53.938,135.087v8.084h-1.835v-8.084H53.938z"/>
	<path d="M62.275,142.799c-0.564,0.192-1.631,0.456-2.699,0.456c-1.475,0-2.542-0.372-3.286-1.092
		c-0.744-0.695-1.151-1.751-1.139-2.938c0.012-2.687,1.967-4.222,4.617-4.222c1.043,0,1.847,0.204,2.243,0.396l-0.384,1.463
		c-0.443-0.192-0.995-0.348-1.883-0.348c-1.523,0-2.674,0.863-2.674,2.614c0,1.667,1.043,2.65,2.542,2.65
		c0.42,0,0.755-0.048,0.899-0.12v-1.69h-1.247v-1.428h3.01V142.799z"/>
	<path d="M65.542,135.087v3.106h3.01v-3.106h1.823v8.084h-1.823v-3.383h-3.01v3.383h-1.835v-8.084H65.542z"/>
	<path d="M73.534,136.622h-2.171v-1.535h6.213v1.535h-2.207v6.549h-1.835V136.622z"/>
	<path d="M82.066,136.622h-2.171v-1.535h6.213v1.535h-2.207v6.549h-1.835V136.622z"/>
	<path d="M94.134,139.045c0,2.65-1.607,4.258-3.97,4.258c-2.398,0-3.802-1.812-3.802-4.114c0-2.422,1.547-4.233,3.934-4.233
		C92.779,134.955,94.134,136.814,94.134,139.045z M88.293,139.153c0,1.583,0.744,2.698,1.967,2.698c1.235,0,1.943-1.176,1.943-2.747
		c0-1.451-0.696-2.698-1.955-2.698C89.013,136.406,88.293,137.582,88.293,139.153z"/>
	<path d="M55.781,149.487h1.835v6.548h3.214v1.535h-5.049V149.487z"/>
	<path d="M66.723,154.152h-2.975v1.919h3.322v1.499h-5.157v-8.083h4.989v1.499h-3.154v1.679h2.975V154.152z"/>
	<path d="M70.204,155.496l-0.576,2.074h-1.895l2.47-8.083h2.399l2.507,8.083h-1.967l-0.624-2.074H70.204z M72.255,154.129
		l-0.504-1.716c-0.144-0.479-0.288-1.079-0.408-1.559H71.32c-0.12,0.479-0.24,1.091-0.372,1.559l-0.479,1.716H72.255z"/>
	<path d="M76.193,149.595c0.672-0.107,1.547-0.168,2.471-0.168c1.535,0,2.531,0.276,3.31,0.864c0.84,0.623,1.367,1.619,1.367,3.046
		c0,1.547-0.563,2.614-1.343,3.274c-0.852,0.707-2.146,1.043-3.73,1.043c-0.947,0-1.619-0.06-2.075-0.12V149.595z M78.028,156.191
		c0.156,0.036,0.408,0.036,0.636,0.036c1.655,0.012,2.734-0.899,2.734-2.831c0.012-1.679-0.971-2.566-2.542-2.566
		c-0.408,0-0.672,0.036-0.828,0.072V156.191z"/>
</g>
<ellipse fill="none" stroke="#000000" stroke-width="1.0119" stroke-miterlimit="10" cx="144.18" cy="119.712" rx="31.181" ry="47.935"/>
<ellipse fill="none" stroke="#000000" stroke-width="0.4938" stroke-miterlimit="10" cx="141.98" cy="121.081" rx="16.586" ry="21.457"/>
<ellipse cx="141.98" cy="121.081" rx="12.746" ry="18.557"/>
<path d="M33.38,34.766l-9.833-3.381l1.04,9.104l3.227-1.977c0,0,11.705,12.955,14.932,20.135l4.683-2.081
	c0,0-8.429-13.371-16.806-19.511L33.38,34.766z"/>
<line fill="none" stroke="#000000" stroke-miterlimit="10" x1="63.416" y1="71.779" x2="144.18" y2="71.779"/>
<g>
	<rect x="29.74" y="85.109" fill="none" width="80.026" height="12.388"/>
	<path d="M45.235,85.608v9.44h-2.144v-9.44H45.235z"/>
	<path d="M47.053,90.385c0-0.854-0.028-1.583-0.056-2.186h1.849l0.098,0.938h0.042c0.28-0.434,0.98-1.093,2.115-1.093
		c1.4,0,2.451,0.925,2.451,2.942v4.062h-2.129v-3.796c0-0.883-0.308-1.484-1.078-1.484c-0.588,0-0.939,0.406-1.079,0.798
		c-0.056,0.126-0.084,0.337-0.084,0.532v3.95h-2.129V90.385z"/>
	<path d="M56.462,88.199l0.546,2.802c0.14,0.714,0.28,1.471,0.392,2.255h0.028c0.14-0.784,0.336-1.568,0.504-2.241l0.729-2.815
		h1.681l0.686,2.731c0.182,0.771,0.364,1.541,0.504,2.325h0.028c0.098-0.784,0.238-1.555,0.393-2.339l0.588-2.718h2.087l-2.101,6.85
		h-2.003L59.88,92.64c-0.168-0.672-0.294-1.288-0.434-2.129h-0.028c-0.126,0.854-0.266,1.484-0.448,2.129l-0.687,2.409H56.28
		l-1.989-6.85H56.462z"/>
	<path d="M72.173,91.547c0,2.508-1.779,3.656-3.614,3.656c-2.003,0-3.544-1.316-3.544-3.53c0-2.213,1.457-3.628,3.656-3.628
		C70.772,88.045,72.173,89.488,72.173,91.547z M67.214,91.617c0,1.177,0.49,2.06,1.4,2.06c0.827,0,1.359-0.827,1.359-2.06
		c0-1.022-0.392-2.059-1.359-2.059C67.592,89.559,67.214,90.608,67.214,91.617z"/>
	<path d="M79.943,92.85c0,0.896,0.028,1.625,0.056,2.199H78.15l-0.098-0.966H78.01c-0.266,0.42-0.911,1.12-2.143,1.12
		c-1.387,0-2.409-0.868-2.409-2.983v-4.021h2.143v3.685c0,0.994,0.322,1.597,1.064,1.597c0.588,0,0.924-0.406,1.064-0.742
		c0.056-0.127,0.07-0.295,0.07-0.463v-4.076h2.143V92.85z"/>
	<path d="M81.647,90.385c0-0.854-0.028-1.583-0.056-2.186h1.849l0.098,0.938h0.042c0.28-0.434,0.98-1.093,2.115-1.093
		c1.4,0,2.451,0.925,2.451,2.942v4.062h-2.129v-3.796c0-0.883-0.308-1.484-1.079-1.484c-0.588,0-0.938,0.406-1.078,0.798
		c-0.056,0.126-0.084,0.337-0.084,0.532v3.95h-2.129V90.385z"/>
	<path d="M96.491,85.104v7.9c0,0.771,0.028,1.583,0.056,2.045h-1.891l-0.098-1.008H94.53c-0.435,0.77-1.261,1.162-2.144,1.162
		c-1.625,0-2.927-1.387-2.927-3.516c-0.014-2.312,1.429-3.643,3.067-3.643c0.841,0,1.499,0.295,1.807,0.771h0.028v-3.712H96.491z
		 M94.362,91.099c0-0.111-0.014-0.266-0.028-0.378c-0.126-0.574-0.588-1.051-1.247-1.051c-0.967,0-1.471,0.869-1.471,1.947
		c0,1.163,0.574,1.891,1.457,1.891c0.616,0,1.106-0.42,1.233-1.022c0.042-0.153,0.056-0.308,0.056-0.49V91.099z"/>
</g>
<g>
	<rect x="59.053" y="100.83" fill="none" width="26.311" height="28.808"/>
	<path d="M63.255,106.05v-4.843h17.831v3.785c-1.472,1.447-2.969,3.525-4.49,6.234s-2.681,5.588-3.479,8.637
		c-0.798,3.05-1.191,5.774-1.178,8.174h-5.028c0.086-3.761,0.863-7.595,2.329-11.504s3.423-7.403,5.873-10.483H63.255z"/>
</g>
<line fill="none" stroke="#000000" stroke-width="3" stroke-miterlimit="10" x1="135.35" y1="30.385" x2="124.605" y2="30.385"/>
<line fill="none" stroke="#000000" stroke-width="3" stroke-miterlimit="10" x1="46.231" y1="30.385" x2="35.487" y2="30.385"/>
<line fill="none" stroke="#000000" stroke-width="3" stroke-miterlimit="10" x1="156.06" y1="56.285" x2="145.314" y2="56.285"/>
<line fill="none" stroke="#000000" stroke-width="3" stroke-miterlimit="10" x1="65.956" y1="56.285" x2="55.211" y2="56.285"/>
<path fill="none" stroke="#000000" stroke-miterlimit="10" d="M176.373,113.376c0-50.75-45.75-90-45.75-90H24.272
	c0,0,24.45,16.593,39.144,48.401"/>
<path fill="none" stroke="#000000" stroke-miterlimit="10" d="M63.416,71.777"/>
<path fill="none" stroke="#000000" stroke-miterlimit="10" d="M63.416,71.777h-17.48c0,0-33.807,0.758-33.807,49.304
	c0,48.545,33.807,46.565,33.807,46.565h99.379"/>
<path d="M189.92,189.92H0V0H189.92V189.92z M5.017,184.902h179.886V5.018H5.017V184.902z"/>
</svg>
