<?xml version="1.0" encoding="utf-8"?>
<!-- Generator: Adobe Illustrator 16.0.0, SVG Export Plug-In . SVG Version: 6.00 Build 0)  -->
<!DOCTYPE svg PUBLIC "-//W3C//DTD SVG 1.1//EN" "http://www.w3.org/Graphics/SVG/1.1/DTD/svg11.dtd">
<svg version="1.1" id="Layer_1" xmlns="http://www.w3.org/2000/svg" xmlns:xlink="http://www.w3.org/1999/xlink" x="0px" y="0px"
	 width="189.92px" height="189.92px" viewBox="0 0 189.92 189.92" enable-background="new 0 0 189.92 189.92" xml:space="preserve">
<g>
	<path d="M42.829,78.506c0.168-0.49,0.508-1.18,1.152-2.15c0.653-0.982,1.468-1.681,2.479-2.149
		c0.955-0.447,2.243-0.747,3.521-0.744c1.281,0.003,2.219,0.236,2.676,0.656c0.59,0.545,0.488,1.349-0.139,2.291
		c-0.139,0.208-0.284,0.396-0.421,0.542l4.681,0.012l-1.054,1.579L42.829,78.506z M49.812,76.946
		c0.147-0.137,0.275-0.302,0.429-0.533c0.562-0.846,0.113-1.369-1.229-1.374c-1.198-0.002-2.217,0.445-2.743,1.238
		c-0.214,0.324-0.301,0.543-0.318,0.659L49.812,76.946z"/>
	<path d="M46.855,72.437c0.186-0.513,0.576-1.276,1.139-2.123c0.693-1.044,1.468-1.774,2.539-2.273
		c0.9-0.416,1.964-0.645,3.166-0.64c1.669,0.004,2.391,0.643,2.394,1.251l0.058,0c0.696-0.491,1.749-0.759,3.068-0.934
		c1.621-0.215,3.476-0.432,4.071-0.566l-1.086,1.631c-0.446,0.113-1.62,0.277-3.371,0.482c-1.754,0.184-2.399,0.485-2.849,1.132
		l-0.319,0.481l5.14,0.013l-1.044,1.577L46.855,72.437z M53.531,70.873l0.412-0.625c0.53-0.795,0.105-1.267-1.037-1.269
		c-1.205-0.003-2.098,0.434-2.603,1.165c-0.26,0.386-0.345,0.606-0.383,0.72L53.531,70.873z"/>
	<path d="M51.857,64.641l13.075,0.034l-1.06,1.599l-13.077-0.034L51.857,64.641z"/>
	<path d="M65.848,63.294l-13.073-0.034l1.234-1.859l5.76-1.45c1.655-0.415,3.566-0.828,5.247-1.137l0.025-0.034
		c-1.804,0.104-3.585,0.128-5.548,0.124l-3.818-0.01l0.971-1.462l13.073,0.034l-1.109,1.671l-6.044,1.491
		c-1.674,0.414-3.664,0.869-5.429,1.211l-0.001,0.03c1.758-0.037,3.613-0.054,5.75-0.047l3.936,0.011L65.848,63.294z"/>
	<path d="M60.944,54.7l-1.254,1.891l-2.479-0.008l3.586-5.409l2.483,0.006l-1.275,1.922l10.593,0.028l-1.063,1.597L60.944,54.7z"/>
	<path d="M62.426,48.727l13.071,0.035l-1.058,1.597l-13.078-0.032L62.426,48.727z"/>
	<path d="M76.415,47.381l-13.078-0.033l1.237-1.861l5.761-1.449c1.657-0.414,3.564-0.826,5.248-1.137l0.021-0.032
		c-1.798,0.1-3.584,0.128-5.544,0.122l-3.82-0.01l0.971-1.463l13.072,0.036l-1.108,1.67l-6.043,1.491
		c-1.674,0.414-3.664,0.869-5.429,1.21l-0.001,0.03c1.755-0.037,3.613-0.053,5.748-0.047l3.936,0.01L76.415,47.381z"/>
	<path d="M84.508,34.288c-0.019,0.493-0.208,1.423-0.824,2.352c-0.854,1.286-2.071,2.213-3.669,2.858
		c-1.554,0.645-3.492,0.994-5.411,0.98c-4.335-0.024-5.69-1.732-4.157-4.04c0.606-0.909,1.396-1.607,1.934-1.951l2.146,0.341
		c-0.563,0.384-1.136,0.864-1.649,1.637c-0.883,1.327-0.15,2.334,2.683,2.339c2.697,0.007,4.891-0.896,5.757-2.203
		c0.242-0.364,0.361-0.656,0.33-0.783l-2.736-0.007l-0.726,1.087l-2.304-0.007l1.736-2.621L84.508,34.288z"/>
	<path d="M70.749,71.594c0.18-0.511,0.576-1.276,1.137-2.122c0.693-1.044,1.47-1.775,2.537-2.273c0.9-0.416,1.965-0.644,3.167-0.642
		c1.668,0.004,2.392,0.646,2.396,1.251l0.061,0c0.693-0.49,1.746-0.759,3.064-0.933c1.624-0.215,3.473-0.431,4.068-0.564
		l-1.082,1.627c-0.444,0.114-1.622,0.278-3.368,0.484c-1.755,0.182-2.403,0.485-2.857,1.134l-0.317,0.48l5.145,0.012l-1.048,1.577
		L70.749,71.594z M77.423,70.031l0.416-0.626c0.524-0.794,0.101-1.266-1.044-1.269c-1.205-0.003-2.096,0.434-2.599,1.165
		c-0.26,0.388-0.344,0.607-0.38,0.721L77.423,70.031z"/>
	<path d="M85.019,61.228l-1.721,2.591l3.105,0.007l1.917-2.892l2.427,0.005l-2.983,4.491l-13.076-0.035l2.886-4.344l2.421,0.008
		l-1.819,2.745l2.719,0.007l1.716-2.59L85.019,61.228z"/>
	<path d="M89.202,58.202l3.021,0.51l-1.094,1.65l-11.646-2.185l1.386-2.089l14.524-2.149l-1.137,1.713l-3.719,0.536L89.202,58.202z
		 M88.175,56.411l-3.063,0.43c-0.86,0.125-1.912,0.247-2.76,0.35l-0.016,0.019c0.708,0.107,1.626,0.216,2.311,0.331l2.497,0.425
		L88.175,56.411z"/>
	<path d="M83.118,52.962c0.217-0.586,0.624-1.349,1.16-2.153c0.885-1.336,1.907-2.203,3.307-2.878
		c1.494-0.729,3.41-1.184,5.719-1.178c2.504,0.006,3.906,0.502,4.522,1.184c0.649,0.745,0.444,1.873-0.471,3.253
		c-0.548,0.825-1.034,1.409-1.391,1.806L83.118,52.962z M94.849,51.392c0.149-0.135,0.294-0.354,0.428-0.554
		c0.977-1.441,0.126-2.384-2.999-2.393c-2.707-0.018-4.711,0.834-5.62,2.204c-0.237,0.355-0.333,0.585-0.363,0.722L94.849,51.392z"
		/>
	<path d="M97.837,45.662c0.691-0.426,1.533-1.083,1.986-1.762c0.488-0.732,0.183-1.12-0.675-1.121
		c-0.812-0.003-1.499,0.33-2.625,1.174c-1.532,1.168-3.24,1.927-5.144,1.923c-2.23-0.007-3.271-1.013-2.168-2.674
		c0.525-0.793,1.222-1.377,1.852-1.794l2.15,0.36c-0.441,0.284-1.145,0.784-1.599,1.472c-0.456,0.69-0.098,1.026,0.582,1.027
		c0.831,0.002,1.468-0.395,2.708-1.302c1.678-1.239,3.272-1.821,5.113-1.816c2.193,0.005,3.45,0.919,2.17,2.851
		c-0.534,0.804-1.45,1.597-2.118,1.992L97.837,45.662z"/>
	<path d="M93.066,76.605l-1.254,1.89L89.33,78.49l3.595-5.411l2.479,0.006l-1.276,1.921l10.595,0.027l-1.061,1.6L93.066,76.605z"/>
	<path d="M94.544,70.632l5.028,0.011l1.74-2.62l-5.023-0.013l1.051-1.588l13.078,0.035l-1.055,1.587l-5.469-0.014l-1.743,2.621
		l5.473,0.014l-1.063,1.598L93.486,72.23L94.544,70.632z"/>
	<path d="M99.327,63.431l13.073,0.035l-1.059,1.598l-13.077-0.034L99.327,63.431z"/>
	<path d="M110.309,62.024c0.69-0.426,1.536-1.084,1.987-1.762c0.484-0.73,0.18-1.119-0.675-1.122
		c-0.813-0.001-1.501,0.331-2.627,1.176c-1.532,1.166-3.246,1.928-5.144,1.923c-2.229-0.007-3.271-1.013-2.17-2.675
		c0.526-0.792,1.229-1.378,1.852-1.793l2.149,0.36c-0.439,0.282-1.139,0.782-1.595,1.471c-0.46,0.69-0.1,1.026,0.579,1.028
		c0.833,0.003,1.466-0.395,2.713-1.302c1.678-1.24,3.267-1.822,5.108-1.817c2.195,0.006,3.456,0.919,2.171,2.853
		c-0.532,0.805-1.448,1.596-2.12,1.993L110.309,62.024z"/>
	<path d="M118.965,53.58l-14.188,1.638l1.133-1.703l5.751-0.52c1.654-0.151,3.441-0.294,4.835-0.405l0.014-0.021
		c-1.338-0.119-2.804-0.29-4.294-0.472l-4.959-0.608l1.124-1.693l5.884-0.55c1.637-0.151,3.109-0.263,4.634-0.364l0.013-0.02
		c-1.381-0.111-2.812-0.269-4.266-0.42l-4.975-0.589l1.076-1.619l11.867,1.853l-1.146,1.724l-6.021,0.58
		c-1.409,0.132-2.705,0.244-4.259,0.324l-0.013,0.02c1.392,0.129,2.561,0.247,3.768,0.418l5.179,0.683L118.965,53.58z"/>
	<path d="M121.729,44.354l3.023,0.51l-1.096,1.648l-11.649-2.185l1.39-2.089l14.523-2.147l-1.136,1.711l-3.717,0.536L121.729,44.354
		z M120.704,42.562l-3.066,0.432c-0.859,0.124-1.91,0.245-2.756,0.348l-0.013,0.021c0.705,0.107,1.624,0.214,2.304,0.331
		l2.498,0.424L120.704,42.562z"/>
	<path d="M128.971,38.51l-5.352-0.014l-9.199,2.206l1.203-1.817l3.621-0.712c1.1-0.217,1.895-0.361,2.867-0.537l0.013-0.021
		c-0.712-0.16-1.355-0.329-2.15-0.539l-2.672-0.719l1.188-1.785l6.083,2.338l5.451,0.014L128.971,38.51z"/>
</g>
<ellipse fill="none" stroke="#000000" stroke-width="1.0119" stroke-miterlimit="10" cx="148.191" cy="120.816" rx="31.181" ry="47.935"/>
<ellipse fill="none" stroke="#000000" stroke-width="0.4938" stroke-miterlimit="10" cx="150.391" cy="122.185" rx="16.586" ry="21.457"/>
<ellipse cx="150.391" cy="122.185" rx="12.746" ry="18.557"/>
<path fill="none" stroke="#000000" stroke-miterlimit="10" d="M60.626,24.48h106.351c0,0-49.967,33.909-49.967,97.705
	c0,0,3.246,46.565,31.182,46.565H47.626c0,0-32.75-3.521-32.75-54.271S60.626,24.48,60.626,24.48z"/>
<path d="M159.227,35.87l9.833-3.382l-1.04,9.104l-3.227-1.977c0,0-11.705,12.955-14.932,20.135l-4.683-2.081
	c0,0,8.429-13.371,16.806-19.51L159.227,35.87z"/>
<line fill="none" stroke="#000000" stroke-miterlimit="10" x1="148.191" y1="72.883" x2="127.432" y2="72.883"/>
<g>
	<rect x="29.739" y="96.214" fill="none" width="80.026" height="12.387"/>
	<path d="M45.979,101.335c0,3.096-1.878,4.973-4.637,4.973c-2.802,0-4.44-2.115-4.44-4.805c0-2.83,1.807-4.945,4.595-4.945
		C44.396,96.559,45.979,98.73,45.979,101.335z M39.158,101.461c0,1.849,0.867,3.151,2.297,3.151c1.442,0,2.27-1.373,2.27-3.208
		c0-1.695-0.813-3.152-2.283-3.152C39.998,98.253,39.158,99.626,39.158,101.461z"/>
	<path d="M53.832,103.955c0,0.896,0.027,1.625,0.057,2.199h-1.85l-0.098-0.966h-0.043c-0.266,0.42-0.91,1.121-2.143,1.121
		c-1.387,0-2.409-0.869-2.409-2.984v-4.02h2.144v3.684c0,0.994,0.322,1.597,1.064,1.597c0.588,0,0.924-0.406,1.064-0.742
		c0.056-0.126,0.07-0.294,0.07-0.462v-4.076h2.143V103.955z"/>
	<path d="M57.918,97.343v1.961h1.527v1.569h-1.527v2.479c0,0.826,0.195,1.205,0.84,1.205c0.267,0,0.477-0.028,0.631-0.056
		l0.014,1.611c-0.279,0.112-0.784,0.182-1.387,0.182c-0.686,0-1.26-0.238-1.597-0.588c-0.392-0.406-0.589-1.064-0.589-2.031v-2.801
		h-0.91v-1.569h0.91v-1.485L57.918,97.343z"/>
	<path d="M62.215,99.304l0.547,2.801c0.14,0.714,0.279,1.471,0.392,2.255h0.028c0.14-0.785,0.336-1.569,0.504-2.241l0.729-2.815
		h1.682l0.686,2.731c0.182,0.771,0.364,1.541,0.504,2.325h0.028c0.099-0.785,0.238-1.555,0.393-2.339l0.589-2.717h2.086l-2.101,6.85
		h-2.003l-0.645-2.409c-0.168-0.672-0.295-1.289-0.434-2.129H65.17c-0.125,0.854-0.266,1.485-0.447,2.129l-0.688,2.409h-2.002
		l-1.989-6.85H62.215z"/>
	<path d="M77.926,102.652c0,2.507-1.779,3.656-3.613,3.656c-2.004,0-3.545-1.317-3.545-3.53c0-2.213,1.457-3.628,3.656-3.628
		C76.525,99.15,77.926,100.593,77.926,102.652z M72.967,102.722c0,1.176,0.49,2.059,1.4,2.059c0.827,0,1.359-0.827,1.359-2.059
		c0-1.023-0.393-2.059-1.359-2.059C73.346,100.663,72.967,101.713,72.967,102.722z"/>
	<path d="M85.695,103.955c0,0.896,0.028,1.625,0.057,2.199h-1.85l-0.098-0.966h-0.042c-0.267,0.42-0.911,1.121-2.144,1.121
		c-1.387,0-2.408-0.869-2.408-2.984v-4.02h2.143v3.684c0,0.994,0.322,1.597,1.064,1.597c0.588,0,0.924-0.406,1.064-0.742
		c0.057-0.126,0.07-0.294,0.07-0.462v-4.076h2.143V103.955z"/>
	<path d="M87.4,101.489c0-0.854-0.027-1.583-0.057-2.185h1.85l0.098,0.938h0.043c0.279-0.434,0.98-1.093,2.115-1.093
		c1.4,0,2.451,0.925,2.451,2.942v4.062h-2.13v-3.796c0-0.883-0.308-1.485-1.079-1.485c-0.588,0-0.938,0.406-1.078,0.798
		c-0.056,0.126-0.084,0.336-0.084,0.532v3.95H87.4V101.489z"/>
	<path d="M102.244,96.208v7.9c0,0.77,0.027,1.583,0.057,2.045h-1.892l-0.099-1.008h-0.027c-0.435,0.77-1.261,1.163-2.144,1.163
		c-1.624,0-2.927-1.387-2.927-3.516c-0.015-2.311,1.428-3.642,3.066-3.642c0.842,0,1.5,0.294,1.808,0.771h0.028v-3.712H102.244z
		 M100.115,102.204c0-0.112-0.014-0.266-0.028-0.378c-0.126-0.575-0.589-1.051-1.247-1.051c-0.967,0-1.471,0.869-1.471,1.947
		c0,1.163,0.574,1.891,1.457,1.891c0.616,0,1.106-0.42,1.232-1.022c0.043-0.154,0.057-0.308,0.057-0.49V102.204z"/>
</g>
<g>
	<rect x="45.935" y="142.755" fill="none" width="63.236" height="22.958"/>
	<path d="M53.168,143.299c0.588-0.096,1.464-0.168,2.436-0.168c1.199,0,2.039,0.18,2.614,0.636c0.479,0.384,0.743,0.947,0.743,1.691
		c0,1.032-0.731,1.739-1.427,1.991v0.036c0.563,0.228,0.876,0.768,1.079,1.511c0.252,0.912,0.504,1.967,0.66,2.279h-1.871
		c-0.132-0.228-0.324-0.888-0.564-1.883c-0.215-1.008-0.563-1.283-1.307-1.295h-0.552v3.178h-1.812V143.299z M54.979,146.777h0.72
		c0.912,0,1.451-0.456,1.451-1.164c0-0.743-0.504-1.115-1.344-1.127c-0.443,0-0.695,0.036-0.827,0.06V146.777z"/>
	<path d="M62.119,143.191v8.083h-1.835v-8.083H62.119z"/>
	<path d="M70.457,150.903c-0.564,0.192-1.632,0.456-2.699,0.456c-1.475,0-2.543-0.372-3.286-1.091
		c-0.743-0.696-1.151-1.751-1.14-2.938c0.012-2.687,1.967-4.222,4.617-4.222c1.044,0,1.848,0.204,2.243,0.396l-0.384,1.463
		c-0.443-0.192-0.995-0.348-1.883-0.348c-1.523,0-2.674,0.863-2.674,2.614c0,1.667,1.043,2.651,2.542,2.651
		c0.42,0,0.755-0.048,0.899-0.12v-1.691h-1.247v-1.427h3.011V150.903z"/>
	<path d="M73.723,143.191v3.106h3.011v-3.106h1.823v8.083h-1.823v-3.382h-3.011v3.382h-1.834v-8.083H73.723z"/>
	<path d="M81.715,144.727h-2.17v-1.535h6.213v1.535h-2.207v6.548h-1.836V144.727z"/>
	<path d="M90.247,144.727h-2.171v-1.535h6.213v1.535h-2.207v6.548h-1.835V144.727z"/>
	<path d="M102.315,147.149c0,2.651-1.606,4.258-3.97,4.258c-2.398,0-3.802-1.811-3.802-4.114c0-2.422,1.547-4.233,3.934-4.233
		C100.961,143.06,102.315,144.918,102.315,147.149z M96.475,147.257c0,1.583,0.744,2.698,1.967,2.698
		c1.235,0,1.943-1.175,1.943-2.747c0-1.451-0.695-2.698-1.955-2.698C97.194,144.511,96.475,145.686,96.475,147.257z"/>
	<path d="M63.963,157.591h1.834v6.548h3.215v1.535h-5.049V157.591z"/>
	<path d="M74.904,162.257H71.93v1.919h3.322v1.499h-5.158v-8.083h4.99v1.499H71.93v1.679h2.975V162.257z"/>
	<path d="M78.385,163.6l-0.575,2.075h-1.895l2.47-8.083h2.399l2.507,8.083h-1.967L80.7,163.6H78.385z M80.437,162.233l-0.504-1.715
		c-0.144-0.479-0.288-1.08-0.407-1.559h-0.024c-0.12,0.479-0.24,1.091-0.372,1.559l-0.479,1.715H80.437z"/>
	<path d="M84.375,157.699c0.672-0.108,1.547-0.168,2.471-0.168c1.535,0,2.53,0.276,3.31,0.864c0.84,0.624,1.367,1.619,1.367,3.046
		c0,1.547-0.563,2.615-1.343,3.274c-0.852,0.708-2.146,1.043-3.73,1.043c-0.947,0-1.619-0.06-2.074-0.12V157.699z M86.209,164.295
		c0.156,0.036,0.408,0.036,0.637,0.036c1.654,0.012,2.734-0.899,2.734-2.831c0.012-1.679-0.972-2.566-2.543-2.566
		c-0.408,0-0.672,0.036-0.828,0.072V164.295z"/>
</g>
<g>
	<rect x="59.052" y="111.934" fill="none" width="26.311" height="28.808"/>
	<path d="M63.068,131.924l5.047-0.612c0.161,1.287,0.594,2.27,1.299,2.95c0.705,0.681,1.559,1.021,2.561,1.021
		c1.076,0,1.982-0.408,2.719-1.225s1.104-1.917,1.104-3.303c0-1.311-0.352-2.35-1.057-3.117c-0.705-0.767-1.565-1.15-2.58-1.15
		c-0.668,0-1.465,0.13-2.393,0.39l0.574-4.249c1.41,0.037,2.486-0.269,3.229-0.918s1.113-1.512,1.113-2.588
		c0-0.915-0.271-1.645-0.816-2.189c-0.544-0.544-1.268-0.816-2.17-0.816c-0.891,0-1.652,0.31-2.283,0.928
		c-0.631,0.619-1.014,1.521-1.15,2.709l-4.805-0.816c0.334-1.645,0.838-2.959,1.512-3.943s1.614-1.756,2.82-2.319
		c1.206-0.563,2.557-0.844,4.055-0.844c2.561,0,4.613,0.816,6.16,2.449c1.273,1.336,1.91,2.845,1.91,4.527
		c0,2.388-1.305,4.292-3.914,5.715c1.559,0.334,2.805,1.083,3.738,2.245c0.934,1.163,1.4,2.567,1.4,4.212
		c0,2.388-0.871,4.422-2.615,6.104c-1.744,1.683-3.916,2.523-6.514,2.523c-2.461,0-4.502-0.708-6.123-2.125
		C64.269,136.065,63.328,134.212,63.068,131.924z"/>
</g>
<line fill="none" stroke="#000000" stroke-width="3" stroke-miterlimit="10" x1="55.899" y1="31.488" x2="66.644" y2="31.488"/>
<line fill="none" stroke="#000000" stroke-width="3" stroke-miterlimit="10" x1="145.018" y1="31.488" x2="155.762" y2="31.488"/>
<line fill="none" stroke="#000000" stroke-width="3" stroke-miterlimit="10" x1="35.189" y1="57.389" x2="45.935" y2="57.389"/>
<line fill="none" stroke="#000000" stroke-width="3" stroke-miterlimit="10" x1="125.293" y1="57.389" x2="136.038" y2="57.389"/>
<line fill="none" stroke="#000000" stroke-width="3" stroke-miterlimit="10" x1="107.187" y1="93.389" x2="117.932" y2="93.389"/>
<line fill="none" stroke="#000000" stroke-width="3" stroke-miterlimit="10" x1="18.995" y1="93.389" x2="29.739" y2="93.389"/>
<line fill="none" stroke="#000000" stroke-width="3" stroke-miterlimit="10" x1="18.995" y1="140.203" x2="29.739" y2="140.203"/>
<line fill="none" stroke="#000000" stroke-width="3" stroke-miterlimit="10" x1="109.051" y1="140.203" x2="119.795" y2="140.203"/>
<path d="M189.92,189.92H0V0h189.92V189.92z M5.018,184.903h179.885V5.017H5.018V184.903z"/>
</svg>
