<?xml version="1.0" encoding="utf-8"?>
<!-- Generator: Adobe Illustrator 16.0.0, SVG Export Plug-In . SVG Version: 6.00 Build 0)  -->
<!DOCTYPE svg PUBLIC "-//W3C//DTD SVG 1.1//EN" "http://www.w3.org/Graphics/SVG/1.1/DTD/svg11.dtd">
<svg version="1.1" id="Layer_1" xmlns="http://www.w3.org/2000/svg" xmlns:xlink="http://www.w3.org/1999/xlink" x="0px" y="0px"
	 width="189.92px" height="189.92px" viewBox="0 0 189.92 189.92" enable-background="new 0 0 189.92 189.92" xml:space="preserve">
<g>
	<path d="M114.818,26.52c0.35,0.353,0.759,0.865,1.211,1.615c0.457,0.762,0.516,1.366,0.205,1.855
		c-0.296,0.466-0.985,0.895-1.959,1.123c-0.976,0.23-1.911,0.248-2.666,0.057c-0.979-0.251-1.675-0.797-2.112-1.525
		c-0.099-0.162-0.175-0.313-0.211-0.432l-3.561,0.838l-0.735-1.223L114.818,26.52z M111.031,28.803
		c0.02,0.115,0.083,0.25,0.19,0.426c0.39,0.656,1.24,0.918,2.263,0.679c0.915-0.216,1.251-0.691,0.883-1.308
		c-0.15-0.25-0.296-0.41-0.393-0.488L111.031,28.803z"/>
	<path d="M117.643,31.221c0.357,0.369,0.804,0.938,1.192,1.595c0.488,0.808,0.605,1.429,0.279,1.946
		c-0.275,0.435-0.866,0.777-1.781,0.992c-1.276,0.299-2.443,0.009-3.033-0.387l-0.044,0.011c-0.053,0.447-0.593,0.812-1.426,1.167
		c-1.022,0.433-2.219,0.908-2.542,1.104l-0.758-1.261c0.229-0.155,0.965-0.478,2.088-0.927c1.16-0.438,1.36-0.752,1.073-1.256
		l-0.226-0.373l-3.918,0.921l-0.732-1.223L117.643,31.221z M114.093,33.451l0.291,0.484c0.372,0.615,1.148,0.847,2.021,0.643
		c0.918-0.217,1.171-0.664,0.845-1.234c-0.179-0.299-0.327-0.457-0.407-0.539L114.093,33.451z"/>
	<path d="M121.406,37.229l-9.966,2.34l-0.741-1.238l9.965-2.341L121.406,37.229z"/>
	<path d="M112.082,40.638l9.966-2.342l0.865,1.44l-2.973,1.99c-0.852,0.57-1.901,1.186-2.881,1.692l0.019,0.024
		c1.263-0.389,2.596-0.73,4.086-1.08l2.914-0.686l0.678,1.133l-9.958,2.342l-0.778-1.296l3.142-2.067
		c0.872-0.574,1.942-1.232,2.951-1.773l-0.033-0.02c-1.292,0.342-2.691,0.688-4.315,1.068l-2.999,0.706L112.082,40.638z"/>
	<path d="M124.14,45.377l-0.881-1.464l1.89-0.444l2.521,4.19l-1.894,0.444l-0.894-1.488l-8.073,1.896l-0.74-1.236L124.14,45.377z"/>
	<path d="M128.807,49.555l-9.964,2.341l-0.742-1.237l9.963-2.343L128.807,49.555z"/>
	<path d="M119.488,52.966l9.963-2.343l0.864,1.439l-2.973,1.99c-0.853,0.571-1.897,1.186-2.876,1.693l0.013,0.025
		c1.269-0.392,2.6-0.732,4.087-1.083l2.914-0.686l0.683,1.136l-9.963,2.34l-0.778-1.293l3.143-2.07
		c0.872-0.574,1.942-1.23,2.949-1.772l-0.029-0.021c-1.295,0.342-2.692,0.687-4.313,1.069l-3.003,0.704L119.488,52.966z"/>
	<path d="M126.035,62.996c-0.464-0.324-1.226-0.969-1.654-1.689c-0.597-0.993-0.571-1.82,0.014-2.531
		c0.557-0.703,1.692-1.284,3.159-1.62c3.316-0.771,6.001,0.104,7.074,1.892c0.423,0.705,0.499,1.305,0.421,1.627l-1.963,0.164
		c0.061-0.355,0.027-0.772-0.331-1.369c-0.612-1.027-2.148-1.555-4.304-1.048c-2.056,0.483-2.844,1.473-2.236,2.485
		c0.169,0.281,0.365,0.494,0.513,0.569l2.081-0.489l-0.505-0.84l1.762-0.414l1.221,2.029L126.035,62.996z"/>
	<path d="M100.316,36.092c0.361,0.371,0.807,0.938,1.196,1.594c0.484,0.81,0.606,1.427,0.274,1.946
		c-0.277,0.437-0.867,0.777-1.78,0.991c-1.273,0.299-2.441,0.012-3.034-0.384l-0.043,0.011c-0.054,0.445-0.59,0.812-1.426,1.162
		c-1.021,0.436-2.219,0.91-2.539,1.107l-0.762-1.262c0.229-0.156,0.965-0.477,2.097-0.926c1.153-0.438,1.353-0.752,1.066-1.258
		l-0.224-0.371l-3.918,0.92l-0.735-1.221L100.316,36.092z M96.767,38.322l0.293,0.484c0.365,0.615,1.146,0.846,2.021,0.641
		c0.915-0.214,1.17-0.662,0.845-1.23c-0.18-0.301-0.327-0.461-0.413-0.541L96.767,38.322z"/>
	<path d="M99.53,45.455l-1.201-2.005l-2.364,0.554l1.343,2.241L95.46,46.68l-2.088-3.479l9.962-2.342l2.022,3.366l-1.848,0.433
		l-1.277-2.127l-2.07,0.486l1.205,2.008L99.53,45.455z"/>
	<path d="M99.292,48.193l-2.794,0.211l-0.767-1.276l10.96-0.676l0.974,1.619l-8.945,4.031l-0.799-1.326l2.305-1.024L99.292,48.193z
		 M101.802,49.18l1.913-0.837c0.532-0.235,1.212-0.507,1.754-0.725l-0.011-0.019c-0.639,0.059-1.441,0.154-2.069,0.201l-2.307,0.172
		L101.802,49.18z"/>
	<path d="M108.986,50.523c0.405,0.421,0.833,0.994,1.209,1.618c0.623,1.034,0.687,1.786,0.28,2.481
		c-0.433,0.747-1.443,1.393-3.201,1.805c-1.909,0.447-3.455,0.379-4.581,0.044c-1.219-0.372-2.154-1.146-2.796-2.214
		c-0.386-0.639-0.582-1.109-0.692-1.435L108.986,50.523z M101.603,53.67c0.016,0.117,0.117,0.287,0.211,0.441
		c0.655,1.119,2.215,1.583,4.6,1.023c2.07-0.479,2.767-1.398,2.127-2.457c-0.165-0.275-0.313-0.444-0.42-0.539L101.603,53.67z"/>
	<path d="M104.888,57.962c-0.114,0.405-0.117,0.986,0.201,1.512c0.336,0.567,0.947,0.765,1.597,0.612
		c0.622-0.146,0.816-0.486,0.855-1.243c0.031-1.042,0.596-1.848,2.044-2.188c1.698-0.4,3.467,0.071,4.235,1.356
		c0.37,0.615,0.404,1.123,0.338,1.51l-1.986,0.151c0.06-0.263,0.108-0.718-0.215-1.252c-0.317-0.532-0.916-0.688-1.435-0.565
		c-0.635,0.148-0.73,0.523-0.797,1.342c-0.072,1.115-0.721,1.782-2.122,2.113c-1.669,0.393-3.51,0.021-4.404-1.476
		c-0.38-0.621-0.453-1.306-0.328-1.686L104.888,57.962z"/>
	<path d="M78.513,36.848l-0.885-1.465l1.896-0.445l2.521,4.192l-1.895,0.444l-0.894-1.49l-8.07,1.897l-0.742-1.238L78.513,36.848z"
		/>
	<path d="M83.182,41.025l-3.831,0.897l1.224,2.031l3.826-0.899l0.735,1.23l-9.959,2.34l-0.736-1.229l4.165-0.98l-1.219-2.029
		l-4.166,0.979l-0.746-1.237l9.961-2.344L83.182,41.025z"/>
	<path d="M86.531,46.602l-9.961,2.342l-0.745-1.238l9.963-2.342L86.531,46.602z"/>
	<path d="M79.557,49.506c-0.113,0.405-0.115,0.986,0.2,1.514c0.339,0.567,0.948,0.765,1.599,0.612
		c0.618-0.147,0.818-0.487,0.855-1.245c0.032-1.043,0.594-1.848,2.042-2.188c1.702-0.398,3.466,0.072,4.237,1.36
		c0.372,0.613,0.403,1.123,0.335,1.508l-1.985,0.152c0.063-0.264,0.11-0.717-0.212-1.252c-0.32-0.533-0.92-0.688-1.432-0.566
		c-0.637,0.15-0.73,0.522-0.799,1.342c-0.074,1.113-0.719,1.783-2.121,2.114c-1.674,0.392-3.513,0.021-4.414-1.476
		c-0.372-0.623-0.445-1.307-0.317-1.688L79.557,49.506z"/>
	<path d="M81.167,56.6l9.184-3.637l0.793,1.321l-3.856,1.376c-1.113,0.4-2.332,0.814-3.283,1.141l0.011,0.017
		c1.133-0.165,2.407-0.317,3.714-0.468l4.361-0.498l0.785,1.311l-3.936,1.423c-1.097,0.397-2.105,0.735-3.165,1.077l0.011,0.016
		c1.158-0.178,2.394-0.332,3.645-0.498l4.35-0.514l0.751,1.255l-10.81,0.934l-0.798-1.335l4.008-1.47
		c0.943-0.341,1.819-0.647,2.917-0.98l-0.008-0.017c-1.181,0.168-2.181,0.303-3.265,0.408l-4.597,0.489L81.167,56.6z"/>
	<path d="M88.014,63.137l-2.793,0.212l-0.765-1.278l10.959-0.674l0.971,1.617l-8.945,4.033l-0.794-1.326l2.305-1.023L88.014,63.137z
		 M90.528,64.124l1.91-0.837c0.532-0.234,1.213-0.506,1.756-0.727l-0.011-0.017c-0.635,0.059-1.44,0.154-2.07,0.202l-2.307,0.173
		L90.528,64.124z"/>
	<path d="M88.178,68.271l4.078-0.959l4.849-3.106l0.849,1.407l-2.062,1.12c-0.621,0.343-1.088,0.58-1.657,0.871l0.01,0.015
		c0.697-0.023,1.351-0.029,2.156-0.033l2.726-0.016l0.831,1.383l-6.888-0.43L88.915,69.5L88.178,68.271z"/>
</g>
<g>
	<rect x="40.556" y="134.651" fill="none" width="63.236" height="22.958"/>
	<path d="M51.851,135.087h1.835v6.549H56.9v1.535h-5.049V135.087z"/>
	<path d="M62.792,139.753h-2.975v1.919h3.322v1.499h-5.157v-8.084h4.989v1.499h-3.154v1.68h2.975V139.753z"/>
	<path d="M64.391,135.087h4.941v1.499h-3.106v1.848h2.902v1.487h-2.902v3.25h-1.835V135.087z"/>
	<path d="M72.274,136.622h-2.171v-1.535h6.213v1.535h-2.207v6.549h-1.835V136.622z"/>
	<path d="M80.806,136.622h-2.171v-1.535h6.213v1.535h-2.207v6.549h-1.835V136.622z"/>
	<path d="M92.874,139.045c0,2.65-1.607,4.258-3.97,4.258c-2.398,0-3.802-1.812-3.802-4.114c0-2.422,1.547-4.233,3.934-4.233
		C91.519,134.955,92.874,136.814,92.874,139.045z M87.033,139.153c0,1.583,0.744,2.698,1.967,2.698c1.235,0,1.943-1.176,1.943-2.747
		c0-1.451-0.696-2.698-1.955-2.698C87.753,136.406,87.033,137.582,87.033,139.153z"/>
	<path d="M58.583,149.487h1.835v6.548h3.214v1.535h-5.049V149.487z"/>
	<path d="M69.525,154.152H66.55v1.919h3.322v1.499h-5.157v-8.083h4.989v1.499H66.55v1.679h2.975V154.152z"/>
	<path d="M73.006,155.496l-0.576,2.074h-1.895l2.47-8.083h2.399l2.507,8.083h-1.967l-0.624-2.074H73.006z M75.058,154.129
		l-0.504-1.716c-0.144-0.479-0.288-1.079-0.408-1.559h-0.024c-0.12,0.479-0.24,1.091-0.372,1.559l-0.479,1.716H75.058z"/>
	<path d="M78.996,149.595c0.672-0.107,1.547-0.168,2.471-0.168c1.535,0,2.531,0.276,3.31,0.864c0.84,0.623,1.367,1.619,1.367,3.046
		c0,1.547-0.563,2.614-1.343,3.274c-0.852,0.707-2.146,1.043-3.73,1.043c-0.947,0-1.619-0.06-2.075-0.12V149.595z M80.831,156.191
		c0.156,0.036,0.408,0.036,0.636,0.036c1.655,0.012,2.734-0.899,2.734-2.831c0.012-1.679-0.971-2.566-2.542-2.566
		c-0.408,0-0.672,0.036-0.828,0.072V156.191z"/>
</g>
<ellipse fill="none" stroke="#000000" stroke-width="1.0119" stroke-miterlimit="10" cx="143.547" cy="119.712" rx="31.181" ry="47.935"/>
<ellipse fill="none" stroke="#000000" stroke-width="0.4938" stroke-miterlimit="10" cx="141.347" cy="121.081" rx="16.586" ry="21.457"/>
<ellipse cx="141.347" cy="121.081" rx="12.746" ry="18.557"/>
<path d="M32.747,34.766l-9.833-3.381l1.04,9.104l3.227-1.977c0,0,11.705,12.955,14.932,20.135l4.683-2.081
	c0,0-8.429-13.371-16.806-19.511L32.747,34.766z"/>
<line fill="none" stroke="#000000" stroke-miterlimit="10" x1="62.783" y1="71.779" x2="143.546" y2="71.779"/>
<g>
	<rect x="29.107" y="85.109" fill="none" width="80.026" height="12.388"/>
	<path d="M44.602,85.608v9.44h-2.144v-9.44H44.602z"/>
	<path d="M46.42,90.385c0-0.854-0.028-1.583-0.056-2.186h1.849l0.098,0.938h0.042c0.28-0.434,0.98-1.093,2.115-1.093
		c1.4,0,2.451,0.925,2.451,2.942v4.062H50.79v-3.796c0-0.883-0.308-1.484-1.078-1.484c-0.588,0-0.939,0.406-1.079,0.798
		c-0.056,0.126-0.084,0.337-0.084,0.532v3.95H46.42V90.385z"/>
	<path d="M55.829,88.199l0.546,2.802c0.14,0.714,0.28,1.471,0.392,2.255h0.028c0.14-0.784,0.336-1.568,0.504-2.241l0.729-2.815
		h1.681l0.686,2.731c0.182,0.771,0.364,1.541,0.504,2.325h0.028c0.098-0.784,0.238-1.555,0.393-2.339l0.588-2.718h2.087l-2.101,6.85
		h-2.003l-0.644-2.409c-0.168-0.672-0.294-1.288-0.434-2.129h-0.028c-0.126,0.854-0.266,1.484-0.448,2.129l-0.687,2.409h-2.003
		l-1.989-6.85H55.829z"/>
	<path d="M71.54,91.547c0,2.508-1.779,3.656-3.614,3.656c-2.003,0-3.544-1.316-3.544-3.53c0-2.213,1.457-3.628,3.656-3.628
		C70.139,88.045,71.54,89.488,71.54,91.547z M66.581,91.617c0,1.177,0.49,2.06,1.4,2.06c0.827,0,1.359-0.827,1.359-2.06
		c0-1.022-0.392-2.059-1.359-2.059C66.959,89.559,66.581,90.608,66.581,91.617z"/>
	<path d="M79.31,92.85c0,0.896,0.028,1.625,0.056,2.199h-1.849l-0.098-0.966h-0.042c-0.266,0.42-0.911,1.12-2.143,1.12
		c-1.387,0-2.409-0.868-2.409-2.983v-4.021h2.143v3.685c0,0.994,0.322,1.597,1.064,1.597c0.588,0,0.924-0.406,1.064-0.742
		c0.056-0.127,0.07-0.295,0.07-0.463v-4.076h2.143V92.85z"/>
	<path d="M81.014,90.385c0-0.854-0.028-1.583-0.056-2.186h1.849l0.098,0.938h0.042c0.28-0.434,0.98-1.093,2.115-1.093
		c1.4,0,2.451,0.925,2.451,2.942v4.062h-2.129v-3.796c0-0.883-0.308-1.484-1.079-1.484c-0.588,0-0.938,0.406-1.078,0.798
		c-0.056,0.126-0.084,0.337-0.084,0.532v3.95h-2.129V90.385z"/>
	<path d="M95.858,85.104v7.9c0,0.771,0.028,1.583,0.056,2.045h-1.891l-0.098-1.008h-0.028c-0.435,0.77-1.261,1.162-2.144,1.162
		c-1.625,0-2.927-1.387-2.927-3.516c-0.014-2.312,1.429-3.643,3.067-3.643c0.841,0,1.499,0.295,1.807,0.771h0.028v-3.712H95.858z
		 M93.729,91.099c0-0.111-0.014-0.266-0.028-0.378c-0.126-0.574-0.588-1.051-1.247-1.051c-0.967,0-1.471,0.869-1.471,1.947
		c0,1.163,0.574,1.891,1.457,1.891c0.616,0,1.106-0.42,1.233-1.022c0.042-0.153,0.056-0.308,0.056-0.49V91.099z"/>
</g>
<g>
	<rect x="58.419" y="100.83" fill="none" width="26.311" height="28.808"/>
	<path d="M67.094,113.36c-1.349-0.569-2.329-1.352-2.941-2.348c-0.612-0.995-0.918-2.087-0.918-3.274
		c0-2.028,0.708-3.705,2.125-5.028c1.416-1.323,3.429-1.985,6.04-1.985c2.585,0,4.592,0.662,6.021,1.985s2.143,3,2.143,5.028
		c0,1.262-0.328,2.384-0.983,3.367c-0.656,0.983-1.577,1.735-2.765,2.255c1.509,0.606,2.656,1.49,3.442,2.653
		c0.785,1.163,1.178,2.505,1.178,4.026c0,2.511-0.801,4.552-2.403,6.123c-1.602,1.571-3.733,2.356-6.392,2.356
		c-2.474,0-4.534-0.649-6.179-1.948c-1.942-1.534-2.913-3.637-2.913-6.309c0-1.472,0.365-2.823,1.095-4.055
		C64.372,114.978,65.522,114.028,67.094,113.36z M67.688,119.762c0,1.435,0.368,2.555,1.104,3.358
		c0.736,0.804,1.654,1.206,2.755,1.206c1.076,0,1.967-0.387,2.672-1.16c0.705-0.772,1.058-1.889,1.058-3.349
		c0-1.274-0.359-2.298-1.076-3.071c-0.718-0.772-1.627-1.159-2.728-1.159c-1.274,0-2.224,0.439-2.848,1.317
		C68,117.782,67.688,118.735,67.688,119.762z M68.17,108.109c0,1.039,0.293,1.85,0.881,2.431c0.587,0.581,1.37,0.872,2.347,0.872
		c0.989,0,1.781-0.294,2.375-0.882c0.594-0.587,0.891-1.4,0.891-2.439c0-0.978-0.294-1.76-0.881-2.348
		c-0.588-0.587-1.364-0.881-2.329-0.881c-1.002,0-1.8,0.297-2.394,0.891S68.17,107.132,68.17,108.109z"/>
</g>
<line fill="none" stroke="#000000" stroke-width="3" stroke-miterlimit="10" x1="134.716" y1="30.385" x2="123.972" y2="30.385"/>
<line fill="none" stroke="#000000" stroke-width="3" stroke-miterlimit="10" x1="45.598" y1="30.385" x2="34.854" y2="30.385"/>
<line fill="none" stroke="#000000" stroke-width="3" stroke-miterlimit="10" x1="155.426" y1="56.285" x2="144.681" y2="56.285"/>
<line fill="none" stroke="#000000" stroke-width="3" stroke-miterlimit="10" x1="65.323" y1="56.285" x2="54.578" y2="56.285"/>
<path fill="none" stroke="#000000" stroke-miterlimit="10" d="M175.74,113.376c0-50.75-45.75-90-45.75-90H23.639
	c0,0,24.45,16.593,39.144,48.401"/>
<path fill="none" stroke="#000000" stroke-miterlimit="10" d="M62.783,71.777"/>
<path fill="none" stroke="#000000" stroke-miterlimit="10" d="M62.783,71.777h-17.48c0,0-33.807,0.758-33.807,49.304
	c0,48.545,33.807,46.565,33.807,46.565h99.379"/>
<path d="M189.92,189.92H0V0H189.92V189.92z M5.017,184.902h179.886V5.018H5.017V184.902z"/>
</svg>
