<?xml version="1.0" encoding="utf-8"?>
<!-- Generator: Adobe Illustrator 16.0.0, SVG Export Plug-In . SVG Version: 6.00 Build 0)  -->
<!DOCTYPE svg PUBLIC "-//W3C//DTD SVG 1.1//EN" "http://www.w3.org/Graphics/SVG/1.1/DTD/svg11.dtd">
<svg version="1.1" id="Layer_1" xmlns="http://www.w3.org/2000/svg" xmlns:xlink="http://www.w3.org/1999/xlink" x="0px" y="0px"
	 width="189.92px" height="189.92px" viewBox="0 0 189.92 189.92" enable-background="new 0 0 189.92 189.92" xml:space="preserve">
<g>
	<path d="M142.637,63.775c-0.839,0.099-2.017,0.187-3.681,0.229c-1.685,0.042-2.89-0.1-3.712-0.424
		c-0.783-0.308-1.328-0.831-1.355-1.462c-0.031-0.634,0.337-1.181,1.036-1.563c0.909-0.494,2.277-0.739,3.889-0.78
		c0.359-0.009,0.683-0.009,0.932,0.004l-0.105-2.31l2.704-0.069L142.637,63.775z M139.798,60.912
		c-0.232-0.023-0.522-0.026-0.914-0.015c-1.45,0.036-2.325,0.451-2.296,1.115c0.028,0.592,0.813,0.928,2.174,0.895
		c0.557-0.016,0.93-0.053,1.123-0.086L139.798,60.912z"/>
	<path d="M132.233,64.04c-0.877,0.099-2.181,0.191-3.632,0.227c-1.787,0.046-3.05-0.067-3.924-0.408
		c-0.73-0.288-1.146-0.729-1.173-1.324c-0.036-0.827,1.03-1.418,2.058-1.646l-0.002-0.027c-0.85-0.163-1.334-0.581-1.668-1.168
		c-0.407-0.72-0.823-1.552-1.064-1.796l2.789-0.071c0.204,0.178,0.518,0.699,0.913,1.481c0.356,0.8,0.887,1.007,1.996,0.987
		l0.826-0.021l-0.118-2.54l2.705-0.068L132.233,64.04z M129.398,61.33l-1.074,0.027c-1.361,0.034-2.146,0.419-2.124,0.985
		c0.029,0.594,0.797,0.872,2.049,0.85c0.661-0.017,1.036-0.056,1.232-0.078L129.398,61.33z"/>
	<path d="M118.875,64.465l-0.297-6.461l2.739-0.069l0.295,6.462L118.875,64.465z"/>
	<path d="M116.213,58.063l0.297,6.461l-3.187,0.082l-2.615-2.305c-0.747-0.662-1.501-1.45-2.071-2.165l-0.054,0.004
		c0.217,0.846,0.313,1.719,0.357,2.686l0.088,1.889l-2.508,0.063l-0.299-6.458l2.865-0.075l2.691,2.427
		c0.748,0.672,1.576,1.485,2.199,2.226l0.056-0.01c-0.112-0.851-0.187-1.762-0.237-2.815l-0.09-1.946L116.213,58.063z"/>
	<path d="M101.767,63.671l3.242-0.083l0.057,1.226l-9.274,0.236l-0.055-1.228l3.294-0.083l-0.241-5.234l2.738-0.067L101.767,63.671z
		"/>
	<path d="M91.598,65.156l-0.296-6.461l2.738-0.069l0.297,6.461L91.598,65.156z"/>
	<path d="M88.935,58.755l0.299,6.462l-3.187,0.08l-2.614-2.305c-0.75-0.661-1.503-1.448-2.073-2.163l-0.054,0
		c0.219,0.849,0.314,1.72,0.36,2.687l0.087,1.888l-2.511,0.064l-0.295-6.46l2.862-0.073l2.695,2.428
		c0.746,0.672,1.572,1.485,2.197,2.228l0.053-0.01c-0.11-0.853-0.185-1.762-0.234-2.815l-0.089-1.946L88.935,58.755z"/>
	<path d="M66.514,59.622c0.833-0.175,2.418-0.427,4.012-0.466c2.199-0.056,3.806,0.201,4.942,0.749
		c1.138,0.527,1.783,1.356,1.81,2.304c0.081,2.149-2.78,3.45-6.735,3.549c-1.561,0.039-2.763-0.092-3.362-0.231l0.521-1.185
		c0.669,0.137,1.498,0.24,2.821,0.208c2.271-0.057,3.961-0.792,3.897-2.19c-0.063-1.334-1.656-2.079-3.895-2.023
		c-0.625,0.016-1.125,0.067-1.338,0.132l0.064,1.35l1.859-0.047l0.052,1.14l-4.494,0.115L66.514,59.622z"/>
	<path d="M130.153,52.569c-0.877,0.1-2.178,0.191-3.629,0.228c-1.788,0.045-3.049-0.066-3.924-0.409
		c-0.731-0.29-1.145-0.73-1.171-1.325c-0.037-0.823,1.027-1.417,2.056-1.646l-0.002-0.027c-0.849-0.162-1.336-0.58-1.663-1.167
		c-0.413-0.72-0.825-1.552-1.071-1.796l2.792-0.072c0.205,0.178,0.518,0.698,0.91,1.485c0.36,0.797,0.888,1.003,1.999,0.986
		l0.824-0.021l-0.116-2.541l2.702-0.069L130.153,52.569z M127.32,49.859l-1.071,0.028c-1.361,0.033-2.149,0.418-2.123,0.984
		c0.025,0.593,0.791,0.872,2.043,0.85c0.664-0.016,1.041-0.055,1.235-0.08L127.32,49.859z"/>
	<path d="M112.188,49.377l4.436-0.111l-0.066-1.534l-4.96,0.125l-0.054-1.198l7.696-0.195l0.297,6.46l-7.447,0.188l-0.055-1.196
		l4.709-0.12l-0.063-1.342l-4.44,0.111L112.188,49.377z"/>
	<path d="M106.941,48.438l0.784-1.682l2.826-0.071l-3.387,6.554l-3.583,0.091l-4.039-6.365l2.937-0.076l1.01,1.636L106.941,48.438z
		 M103.931,49.606l0.814,1.354c0.232,0.377,0.471,0.851,0.666,1.229l0.04-0.001c0.158-0.387,0.315-0.882,0.493-1.258l0.654-1.389
		L103.931,49.606z"/>
	<path d="M98.22,53.379c-0.998,0.111-2.302,0.193-3.683,0.229c-2.29,0.059-3.787-0.125-4.972-0.564
		c-1.274-0.469-2.1-1.243-2.151-2.384c-0.056-1.237,0.742-2.113,1.884-2.667c1.246-0.599,3.164-0.916,5.526-0.975
		c1.416-0.037,2.421-0.015,3.103,0.017L98.22,53.379z M95.24,48.178c-0.237-0.024-0.611-0.015-0.954-0.005
		c-2.469,0.053-4.046,0.821-3.975,2.366c0.045,1.342,1.545,2.015,3.89,1.953c0.609-0.015,1.001-0.053,1.231-0.087L95.24,48.178z"/>
	<path d="M85.438,48.829c-0.741-0.184-1.877-0.355-3.042-0.324c-1.254,0.03-1.902,0.326-1.884,0.747
		c0.02,0.402,0.602,0.616,2.065,0.859c2.022,0.322,3.354,0.885,3.397,1.824c0.052,1.102-1.628,1.989-4.47,2.06
		c-1.364,0.035-2.373-0.094-3.099-0.246l0.558-1.195c0.489,0.112,1.355,0.271,2.538,0.241c1.178-0.029,1.741-0.331,1.724-0.666
		c-0.016-0.414-0.708-0.577-2.28-0.855c-2.149-0.367-3.177-0.937-3.221-1.848c-0.049-1.083,1.466-2.042,4.778-2.124
		c1.377-0.037,2.746,0.12,3.437,0.304L85.438,48.829z"/>
	<path d="M138.044,39.705l3.243-0.084l0.056,1.229l-9.275,0.236l-0.055-1.229l3.294-0.082l-0.241-5.234l2.74-0.069L138.044,39.705z"
		/>
	<path d="M127.874,41.191l-0.112-2.483l-4.495,0.116l0.114,2.482l-2.719,0.067l-0.298-6.459l2.719-0.068l0.126,2.702l4.491-0.115
		l-0.125-2.702l2.741-0.071l0.299,6.462L127.874,41.191z"/>
	<path d="M115.533,41.504l-0.298-6.46l2.74-0.071l0.298,6.461L115.533,41.504z"/>
	<path d="M112.851,36.611c-0.743-0.184-1.879-0.356-3.043-0.327c-1.256,0.033-1.904,0.328-1.885,0.748
		c0.02,0.403,0.602,0.617,2.065,0.86c2.023,0.324,3.358,0.884,3.403,1.824c0.048,1.102-1.633,1.99-4.479,2.061
		c-1.36,0.036-2.37-0.094-3.094-0.248l0.556-1.195c0.488,0.113,1.354,0.273,2.538,0.244c1.181-0.03,1.739-0.333,1.724-0.666
		c-0.02-0.414-0.708-0.577-2.28-0.855c-2.147-0.368-3.179-0.938-3.223-1.847c-0.047-1.084,1.468-2.044,4.78-2.128
		c1.377-0.034,2.748,0.123,3.436,0.308L112.851,36.611z"/>
	<path d="M98.295,35.473l3.16,6.388l-2.92,0.075l-1.032-2.641c-0.307-0.76-0.594-1.588-0.82-2.236l-0.038,0
		c-0.165,0.705-0.415,1.491-0.681,2.292l-0.9,2.674l-2.898,0.073l-1.093-2.699c-0.303-0.751-0.53-1.435-0.745-2.149l-0.036,0.001
		c-0.146,0.724-0.377,1.486-0.593,2.26l-0.863,2.671l-2.774,0.071l2.818-6.54l2.952-0.075l1.15,2.754
		c0.262,0.646,0.484,1.245,0.663,1.979l0.038-0.001c0.178-0.733,0.346-1.351,0.603-2.01l1.02-2.81L98.295,35.473z"/>
	<path d="M82.573,37.532l0.786-1.68l2.826-0.071l-3.388,6.553l-3.582,0.091l-4.04-6.366l2.936-0.074l1.009,1.636L82.573,37.532z
		 M79.563,38.703l0.814,1.352c0.232,0.378,0.469,0.851,0.667,1.229l0.037,0c0.158-0.386,0.315-0.88,0.494-1.259l0.653-1.39
		L79.563,38.703z"/>
	<path d="M72.467,36.128l0.123,2.646l3.988,3.718l-3.116,0.081l-1.305-1.523c-0.4-0.459-0.665-0.8-0.989-1.214l-0.035,0.001
		c-0.251,0.411-0.521,0.793-0.857,1.261l-1.143,1.584l-3.063,0.079l3.802-3.869l-0.123-2.694L72.467,36.128z"/>
</g>
<g>
	<rect x="42.093" y="135.467" fill="none" width="63.237" height="22.958"/>
	<path d="M51.223,135.903h4.941v1.499h-3.105v1.848h2.902v1.487h-2.902v3.25h-1.836V135.903z"/>
	<path d="M64.947,139.861c0,2.65-1.607,4.258-3.971,4.258c-2.398,0-3.801-1.812-3.801-4.114c0-2.422,1.547-4.233,3.934-4.233
		C63.592,135.771,64.947,137.63,64.947,139.861z M59.105,139.969c0,1.583,0.744,2.698,1.968,2.698c1.235,0,1.942-1.176,1.942-2.747
		c0-1.451-0.695-2.698-1.955-2.698C59.826,137.222,59.105,138.398,59.105,139.969z"/>
	<path d="M73.551,139.861c0,2.65-1.607,4.258-3.97,4.258c-2.398,0-3.802-1.812-3.802-4.114c0-2.422,1.547-4.233,3.934-4.233
		C72.195,135.771,73.551,137.63,73.551,139.861z M67.71,139.969c0,1.583,0.743,2.698,1.967,2.698c1.235,0,1.943-1.176,1.943-2.747
		c0-1.451-0.696-2.698-1.955-2.698C68.43,137.222,67.71,138.398,67.71,139.969z"/>
	<path d="M75.979,137.438h-2.172v-1.535h6.213v1.535h-2.207v6.549h-1.834V137.438z"/>
	<path d="M84.51,137.438h-2.171v-1.535h6.213v1.535h-2.207v6.549H84.51V137.438z"/>
	<path d="M96.578,139.861c0,2.65-1.607,4.258-3.97,4.258c-2.398,0-3.802-1.812-3.802-4.114c0-2.422,1.547-4.233,3.934-4.233
		C95.223,135.771,96.578,137.63,96.578,139.861z M90.737,139.969c0,1.583,0.743,2.698,1.967,2.698c1.235,0,1.943-1.176,1.943-2.747
		c0-1.451-0.696-2.698-1.955-2.698C91.457,137.222,90.737,138.398,90.737,139.969z"/>
	<path d="M60.121,150.303h1.836v6.548h3.214v1.535h-5.05V150.303z"/>
	<path d="M71.063,154.968h-2.975v1.919h3.322v1.499h-5.156v-8.083h4.988v1.499h-3.154v1.679h2.975V154.968z"/>
	<path d="M74.545,156.312l-0.576,2.074h-1.895l2.471-8.083h2.398l2.507,8.083h-1.968l-0.623-2.074H74.545z M76.596,154.945
		l-0.504-1.716c-0.145-0.479-0.288-1.079-0.408-1.559H75.66c-0.12,0.479-0.24,1.091-0.372,1.559l-0.479,1.716H76.596z"/>
	<path d="M80.533,150.411c0.672-0.107,1.548-0.168,2.471-0.168c1.535,0,2.531,0.276,3.311,0.864c0.84,0.623,1.367,1.619,1.367,3.046
		c0,1.547-0.563,2.614-1.344,3.274c-0.852,0.707-2.146,1.043-3.729,1.043c-0.947,0-1.619-0.06-2.075-0.12V150.411z M82.369,157.007
		c0.155,0.036,0.407,0.036,0.635,0.036c1.656,0.012,2.734-0.899,2.734-2.831c0.013-1.679-0.971-2.566-2.542-2.566
		c-0.407,0-0.672,0.036-0.827,0.072V157.007z"/>
</g>
<ellipse fill="none" stroke="#000000" stroke-width="1.0119" stroke-miterlimit="10" cx="144.956" cy="120.528" rx="31.181" ry="47.935"/>
<ellipse fill="none" stroke="#000000" stroke-width="0.4938" stroke-miterlimit="10" cx="142.756" cy="121.897" rx="16.586" ry="21.457"/>
<ellipse cx="142.756" cy="121.897" rx="12.746" ry="18.557"/>
<path d="M34.155,35.582L24.322,32.2l1.04,9.104l3.227-1.977c0,0,11.705,12.955,14.932,20.135l4.683-2.081
	c0,0-8.429-13.371-16.806-19.51L34.155,35.582z"/>
<line fill="none" stroke="#000000" stroke-miterlimit="10" x1="64.191" y1="72.595" x2="144.955" y2="72.595"/>
<g>
	<rect x="30.516" y="85.926" fill="none" width="80.026" height="12.387"/>
	<path d="M46.01,86.424v9.44h-2.143v-9.44H46.01z"/>
	<path d="M47.828,91.201c0-0.854-0.027-1.583-0.056-2.186h1.849l0.099,0.938h0.042c0.28-0.434,0.98-1.093,2.115-1.093
		c1.4,0,2.451,0.925,2.451,2.942v4.062h-2.129v-3.796c0-0.883-0.309-1.484-1.078-1.484c-0.589,0-0.939,0.406-1.079,0.798
		c-0.056,0.126-0.085,0.337-0.085,0.532v3.95h-2.129V91.201z"/>
	<path d="M57.237,89.015l0.546,2.802c0.141,0.714,0.281,1.471,0.393,2.255h0.028c0.14-0.784,0.336-1.568,0.504-2.241l0.729-2.815
		h1.681l0.687,2.731c0.183,0.771,0.364,1.541,0.505,2.325h0.027c0.098-0.784,0.238-1.555,0.393-2.339l0.588-2.718h2.088l-2.102,6.85
		h-2.004l-0.644-2.409c-0.168-0.672-0.294-1.288-0.435-2.129h-0.027c-0.127,0.854-0.267,1.484-0.449,2.129l-0.686,2.409h-2.004
		l-1.988-6.85H57.237z"/>
	<path d="M72.948,92.363c0,2.508-1.778,3.656-3.614,3.656c-2.003,0-3.543-1.316-3.543-3.53c0-2.213,1.456-3.628,3.655-3.628
		C71.547,88.861,72.948,90.304,72.948,92.363z M67.99,92.433c0,1.177,0.49,2.06,1.4,2.06c0.826,0,1.358-0.827,1.358-2.06
		c0-1.022-0.392-2.059-1.358-2.059C68.367,90.375,67.99,91.424,67.99,92.433z"/>
	<path d="M80.719,93.666c0,0.896,0.027,1.625,0.056,2.199h-1.849l-0.099-0.966h-0.042c-0.266,0.42-0.91,1.12-2.143,1.12
		c-1.387,0-2.41-0.868-2.41-2.983v-4.021h2.144V92.7c0,0.994,0.322,1.597,1.064,1.597c0.589,0,0.925-0.406,1.064-0.742
		c0.056-0.127,0.07-0.295,0.07-0.463v-4.076h2.144V93.666z"/>
	<path d="M82.423,91.201c0-0.854-0.028-1.583-0.056-2.186h1.849l0.099,0.938h0.041c0.281-0.434,0.98-1.093,2.115-1.093
		c1.4,0,2.451,0.925,2.451,2.942v4.062h-2.129v-3.796c0-0.883-0.309-1.484-1.078-1.484c-0.588,0-0.939,0.406-1.078,0.798
		c-0.057,0.126-0.085,0.337-0.085,0.532v3.95h-2.129V91.201z"/>
	<path d="M97.267,85.919v7.9c0,0.771,0.028,1.583,0.056,2.045h-1.891l-0.098-1.008h-0.028c-0.435,0.77-1.261,1.162-2.144,1.162
		c-1.625,0-2.928-1.387-2.928-3.516c-0.014-2.312,1.43-3.643,3.068-3.643c0.84,0,1.498,0.295,1.807,0.771h0.027v-3.712H97.267z
		 M95.137,91.915c0-0.111-0.014-0.266-0.027-0.378c-0.126-0.574-0.588-1.051-1.246-1.051c-0.967,0-1.471,0.869-1.471,1.947
		c0,1.163,0.574,1.891,1.456,1.891c0.616,0,1.106-0.42,1.233-1.022c0.041-0.153,0.055-0.308,0.055-0.49V91.915z"/>
</g>
<g>
	<rect x="59.828" y="101.646" fill="none" width="26.311" height="28.808"/>
	<path d="M81.695,108.313l-5.047,0.557c-0.125-1.039-0.445-1.806-0.965-2.301s-1.194-0.742-2.023-0.742
		c-1.101,0-2.031,0.495-2.792,1.484s-1.24,3.049-1.438,6.179c1.299-1.534,2.914-2.301,4.844-2.301c2.176,0,4.041,0.829,5.594,2.486
		s2.328,3.798,2.328,6.42c0,2.783-0.816,5.016-2.449,6.698s-3.729,2.523-6.289,2.523c-2.746,0-5.004-1.067-6.773-3.201
		c-1.769-2.134-2.652-5.631-2.652-10.492c0-4.985,0.921-8.578,2.764-10.78c1.844-2.202,4.236-3.303,7.182-3.303
		c2.064,0,3.775,0.578,5.13,1.734C80.461,104.432,81.324,106.111,81.695,108.313z M69.875,119.687c0,1.694,0.391,3.003,1.17,3.924
		c0.779,0.922,1.67,1.383,2.672,1.383c0.965,0,1.768-0.377,2.412-1.132c0.643-0.755,0.965-1.991,0.965-3.711
		c0-1.769-0.348-3.064-1.039-3.888c-0.693-0.822-1.559-1.233-2.598-1.233c-1.002,0-1.85,0.393-2.543,1.178
		C70.222,116.994,69.875,118.153,69.875,119.687z"/>
</g>
<line fill="none" stroke="#000000" stroke-width="3" stroke-miterlimit="10" x1="136.125" y1="31.2" x2="125.381" y2="31.2"/>
<line fill="none" stroke="#000000" stroke-width="3" stroke-miterlimit="10" x1="47.007" y1="31.2" x2="36.263" y2="31.2"/>
<line fill="none" stroke="#000000" stroke-width="3" stroke-miterlimit="10" x1="156.835" y1="57.101" x2="146.09" y2="57.101"/>
<line fill="none" stroke="#000000" stroke-width="3" stroke-miterlimit="10" x1="66.731" y1="57.101" x2="55.986" y2="57.101"/>
<path fill="none" stroke="#000000" stroke-miterlimit="10" d="M177.148,114.192c0-50.75-45.75-90-45.75-90H25.048
	c0,0,24.45,16.593,39.144,48.402"/>
<path fill="none" stroke="#000000" stroke-miterlimit="10" d="M64.191,72.594"/>
<path fill="none" stroke="#000000" stroke-miterlimit="10" d="M64.191,72.594h-17.48c0,0-33.807,0.757-33.807,49.303
	c0,48.545,33.807,46.565,33.807,46.565h99.379"/>
<path d="M189.92,189.92H0V0h189.92V189.92z M5.018,184.903h179.885V5.017H5.018V184.903z"/>
</svg>
