<?xml version="1.0" encoding="utf-8"?>
<!-- Generator: Adobe Illustrator 16.0.0, SVG Export Plug-In . SVG Version: 6.00 Build 0)  -->
<!DOCTYPE svg PUBLIC "-//W3C//DTD SVG 1.1//EN" "http://www.w3.org/Graphics/SVG/1.1/DTD/svg11.dtd">
<svg version="1.1" id="Layer_1" xmlns="http://www.w3.org/2000/svg" xmlns:xlink="http://www.w3.org/1999/xlink" x="0px" y="0px"
	 width="189.92px" height="189.92px" viewBox="0 0 189.92 189.92" enable-background="new 0 0 189.92 189.92" xml:space="preserve">
<ellipse fill="none" stroke="#000000" stroke-width="1.0119" stroke-miterlimit="10" cx="148.191" cy="119.712" rx="31.181" ry="47.935"/>
<ellipse fill="none" stroke="#000000" stroke-width="0.4938" stroke-miterlimit="10" cx="150.391" cy="121.082" rx="16.586" ry="21.457"/>
<ellipse cx="150.391" cy="121.082" rx="12.746" ry="18.557"/>
<path fill="none" stroke="#000000" stroke-miterlimit="10" d="M60.626,23.376h106.35c0,0-49.966,33.909-49.966,97.705
	c0,0,3.246,46.565,31.181,46.565H47.626c0,0-32.75-3.521-32.75-54.271S60.626,23.376,60.626,23.376z"/>
<path d="M159.227,34.767l9.833-3.382l-1.041,9.104l-3.226-1.977c0,0-11.706,12.955-14.932,20.135l-4.683-2.081
	c0,0,8.429-13.371,16.805-19.51L159.227,34.767z"/>
<line fill="none" stroke="#000000" stroke-miterlimit="10" x1="148.191" y1="71.779" x2="127.432" y2="71.779"/>
<g>
	<path d="M55.851,39.978c0.866-0.069,2.061-0.112,3.713-0.083c1.67,0.03,2.792,0.239,3.454,0.63c0.634,0.37,0.936,0.966,0.683,1.657
		c-0.251,0.692-0.856,1.271-1.712,1.657c-1.111,0.498-2.562,0.705-4.162,0.677c-0.356-0.006-0.671-0.022-0.913-0.048l-0.92,2.525
		l-2.682-0.047L55.851,39.978z M57.364,43.232c0.221,0.035,0.5,0.05,0.892,0.057c1.438,0.025,2.483-0.389,2.747-1.112
		c0.236-0.649-0.386-1.05-1.736-1.074c-0.55-0.01-0.935,0.015-1.143,0.043L57.364,43.232z"/>
	<path d="M66.178,40.159c0.903-0.068,2.222-0.109,3.661-0.083c1.777,0.031,2.962,0.21,3.67,0.623c0.588,0.349,0.8,0.847,0.563,1.497
		c-0.329,0.901-1.638,1.5-2.749,1.702l-0.011,0.031c0.763,0.214,1.053,0.693,1.118,1.348c0.083,0.803,0.12,1.732,0.252,2.009
		l-2.771-0.048c-0.124-0.203-0.197-0.784-0.236-1.66c0-0.886-0.426-1.136-1.523-1.165l-0.818-0.015l-1.011,2.777l-2.683-0.046
		L66.178,40.159z M67.753,43.245l1.066,0.019c1.351,0.023,2.295-0.361,2.52-0.979c0.238-0.65-0.391-0.988-1.63-1.02
		c-0.657-0.012-1.042,0.013-1.245,0.03L67.753,43.245z"/>
	<path d="M79.471,40.297l-2.574,7.062l-2.719-0.047l2.575-7.063L79.471,40.297z"/>
	<path d="M79.245,47.4l2.574-7.062l3.163,0.055l1.543,2.631c0.44,0.757,0.829,1.65,1.072,2.455l0.054,0.001
		c0.161-0.936,0.457-1.89,0.841-2.949l0.752-2.064l2.487,0.043l-2.574,7.063l-2.842-0.049l-1.565-2.77
		c-0.436-0.767-0.885-1.692-1.17-2.53l-0.057,0.009c-0.269,0.935-0.595,1.931-1.017,3.084l-0.775,2.126L79.245,47.4z"/>
	<path d="M95.904,41.934l-3.216-0.056l0.49-1.341l9.203,0.161l-0.489,1.341l-3.27-0.058l-2.085,5.722l-2.717-0.048L95.904,41.934z"
		/>
	<path d="M106.542,40.771l-2.574,7.062l-2.717-0.048l2.573-7.062L106.542,40.771z"/>
	<path d="M106.315,47.874l2.574-7.063l3.164,0.056l1.545,2.631c0.438,0.756,0.827,1.649,1.07,2.455l0.053,0.001
		c0.163-0.936,0.456-1.89,0.842-2.949l0.752-2.063l2.488,0.043l-2.575,7.063l-2.842-0.05l-1.565-2.769
		c-0.436-0.767-0.885-1.692-1.17-2.531l-0.057,0.01c-0.269,0.934-0.596,1.93-1.016,3.083l-0.775,2.126L106.315,47.874z"/>
	<path d="M128.701,47.938c-0.896,0.153-2.562,0.356-4.142,0.328c-2.186-0.038-3.647-0.391-4.521-1.039
		c-0.879-0.627-1.148-1.559-0.753-2.597c0.875-2.347,4.259-3.637,8.186-3.569c1.544,0.027,2.671,0.226,3.196,0.403l-1.035,1.269
		c-0.596-0.179-1.363-0.329-2.678-0.352c-2.256-0.04-4.236,0.685-4.793,2.214c-0.531,1.457,0.701,2.343,2.921,2.382
		c0.621,0.011,1.134-0.022,1.37-0.081l0.538-1.478l-1.847-0.033l0.454-1.247l4.459,0.078L128.701,47.938z"/>
	<path d="M63.129,52.768c0.901-0.07,2.221-0.108,3.659-0.083c1.777,0.031,2.964,0.209,3.671,0.623
		c0.589,0.347,0.8,0.847,0.563,1.497c-0.328,0.9-1.638,1.5-2.749,1.703l-0.011,0.031c0.762,0.213,1.052,0.692,1.117,1.348
		c0.082,0.803,0.121,1.731,0.251,2.008l-2.77-0.048c-0.123-0.203-0.197-0.784-0.236-1.659c0.002-0.886-0.426-1.137-1.523-1.167
		l-0.817-0.014l-1.012,2.777l-2.682-0.047L63.129,52.768z M64.704,55.853l1.066,0.019c1.351,0.023,2.295-0.361,2.521-0.979
		c0.236-0.651-0.392-0.988-1.631-1.02c-0.658-0.012-1.043,0.014-1.245,0.031L64.704,55.853z"/>
	<path d="M79.342,57.059l-4.406-0.077l-0.612,1.677l4.92,0.086l-0.478,1.31l-7.639-0.134l2.575-7.063l7.391,0.129l-0.479,1.31
		l-4.672-0.082l-0.535,1.468l4.406,0.077L79.342,57.059z"/>
	<path d="M84.069,58.322l-1.512,1.798l-2.807-0.049l6.233-6.999l3.554,0.062l1.139,7.128l-2.915-0.051l-0.263-1.829L84.069,58.322z
		 M87.544,57.181l-0.199-1.511c-0.062-0.423-0.083-0.951-0.109-1.374l-0.034,0c-0.331,0.416-0.704,0.947-1.047,1.353l-1.257,1.486
		L87.544,57.181z"/>
	<path d="M94.821,53.321c1.03-0.077,2.346-0.106,3.714-0.083c2.273,0.04,3.661,0.306,4.628,0.84c1.045,0.566,1.51,1.45,1.056,2.696
		c-0.492,1.353-1.668,2.271-3.034,2.827c-1.487,0.596-3.511,0.856-5.858,0.815c-1.403-0.025-2.378-0.095-3.034-0.158L94.821,53.321z
		 M95.439,59.132c0.218,0.036,0.592,0.042,0.93,0.048c2.448,0.053,4.336-0.715,4.952-2.402c0.551-1.467-0.622-2.268-2.949-2.309
		c-0.604-0.011-1.007,0.014-1.249,0.042L95.439,59.132z"/>
	<path d="M105.342,58.863c0.648,0.233,1.687,0.472,2.842,0.493c1.244,0.021,2.012-0.271,2.179-0.732
		c0.161-0.44-0.315-0.702-1.644-1.03c-1.842-0.444-2.9-1.116-2.527-2.143c0.441-1.206,2.481-2.098,5.306-2.048
		c1.351,0.023,2.284,0.208,2.925,0.41l-1.073,1.277c-0.431-0.144-1.21-0.358-2.384-0.378c-1.172-0.021-1.855,0.284-1.989,0.651
		c-0.164,0.45,0.439,0.661,1.86,1.034c1.944,0.498,2.703,1.166,2.34,2.161c-0.432,1.185-2.344,2.163-5.631,2.106
		c-1.367-0.024-2.641-0.257-3.236-0.489L105.342,58.863z"/>
	<path d="M49.68,66.449l-3.217-0.056l0.489-1.34l9.203,0.161l-0.489,1.341l-3.268-0.058l-2.086,5.722l-2.718-0.047L49.68,66.449z"/>
	<path d="M60.317,65.285L59.328,68l4.459,0.078l0.989-2.714l2.701,0.047l-2.575,7.063l-2.701-0.047l1.078-2.955l-4.459-0.078
		l-1.076,2.955l-2.719-0.047l2.574-7.063L60.317,65.285z"/>
	<path d="M72.564,65.499l-2.575,7.063l-2.717-0.047l2.574-7.063L72.564,65.499z"/>
	<path d="M73.027,70.96c0.646,0.232,1.686,0.473,2.84,0.493c1.245,0.022,2.012-0.271,2.181-0.732c0.16-0.44-0.316-0.701-1.645-1.031
		c-1.84-0.443-2.902-1.116-2.527-2.143c0.44-1.205,2.48-2.098,5.306-2.048c1.351,0.023,2.285,0.209,2.927,0.409l-1.073,1.279
		c-0.432-0.145-1.211-0.359-2.383-0.379c-1.174-0.021-1.856,0.284-1.99,0.65c-0.165,0.451,0.439,0.662,1.858,1.036
		c1.946,0.498,2.704,1.164,2.341,2.159c-0.432,1.185-2.344,2.164-5.631,2.106c-1.368-0.024-2.641-0.258-3.236-0.49L73.027,70.96z"/>
	<path d="M86.806,72.856l-0.269-7.112l2.896,0.051l-0.155,2.929c-0.04,0.842-0.124,1.759-0.188,2.475l0.035,0
		c0.476-0.762,1.069-1.606,1.687-2.47l2.066-2.874l2.879,0.05l-0.125,2.993c-0.036,0.833-0.116,1.59-0.224,2.38l0.035,0
		c0.465-0.783,1.031-1.606,1.586-2.44l2.032-2.875l2.754,0.048L96.15,73.02l-2.932-0.051l0.095-3.057
		c0.028-0.716,0.074-1.38,0.226-2.189l-0.034-0.001c-0.504,0.793-0.944,1.46-1.488,2.168l-2.245,3.019L86.806,72.856z"/>
	<path d="M103.144,71.318l-1.514,1.797l-2.805-0.049l6.233-6.999l3.553,0.063l1.137,7.127l-2.912-0.051l-0.264-1.828L103.144,71.318
		z M106.618,70.176l-0.2-1.512c-0.061-0.423-0.083-0.95-0.106-1.373l-0.037,0c-0.331,0.416-0.703,0.948-1.047,1.352l-1.256,1.486
		L106.618,70.176z"/>
	<path d="M112.438,73.305l1.055-2.892l-2.265-4.237l3.091,0.054l0.608,1.719c0.187,0.521,0.296,0.902,0.43,1.369l0.035,0
		c0.427-0.436,0.862-0.84,1.4-1.336l1.826-1.676l3.037,0.053l-5.444,4.049l-1.074,2.945L112.438,73.305z"/>
</g>
<g>
	<rect x="29.74" y="95.11" fill="none" width="80.026" height="12.387"/>
	<path d="M45.98,100.231c0,3.096-1.877,4.973-4.637,4.973c-2.801,0-4.44-2.115-4.44-4.805c0-2.83,1.807-4.945,4.595-4.945
		C44.397,95.455,45.98,97.626,45.98,100.231z M39.158,100.358c0,1.849,0.868,3.151,2.297,3.151c1.443,0,2.27-1.373,2.27-3.208
		c0-1.695-0.813-3.152-2.283-3.152C39.999,97.15,39.158,98.523,39.158,100.358z"/>
	<path d="M53.833,102.851c0,0.896,0.028,1.625,0.056,2.199H52.04l-0.098-0.966h-0.042c-0.266,0.42-0.911,1.121-2.143,1.121
		c-1.387,0-2.409-0.869-2.409-2.984v-4.02h2.143v3.684c0,0.994,0.322,1.597,1.064,1.597c0.588,0,0.924-0.406,1.064-0.742
		c0.056-0.126,0.07-0.294,0.07-0.462v-4.076h2.143V102.851z"/>
	<path d="M57.918,96.24v1.961h1.527v1.569h-1.527v2.479c0,0.826,0.196,1.205,0.84,1.205c0.266,0,0.476-0.028,0.63-0.056l0.014,1.611
		c-0.28,0.112-0.785,0.182-1.387,0.182c-0.687,0-1.261-0.238-1.597-0.588c-0.392-0.406-0.588-1.064-0.588-2.031V99.77h-0.91v-1.569
		h0.91v-1.485L57.918,96.24z"/>
	<path d="M62.215,98.201l0.546,2.801c0.14,0.714,0.28,1.471,0.392,2.255h0.028c0.14-0.785,0.336-1.569,0.504-2.241l0.729-2.815
		h1.681l0.686,2.731c0.182,0.771,0.364,1.541,0.504,2.325h0.028c0.098-0.785,0.238-1.555,0.393-2.339l0.588-2.717h2.087l-2.101,6.85
		h-2.003l-0.644-2.409c-0.168-0.672-0.294-1.289-0.434-2.129h-0.028c-0.126,0.854-0.266,1.485-0.448,2.129l-0.687,2.409h-2.003
		l-1.989-6.85H62.215z"/>
	<path d="M77.926,101.548c0,2.507-1.779,3.656-3.614,3.656c-2.003,0-3.544-1.317-3.544-3.53c0-2.213,1.457-3.628,3.656-3.628
		C76.525,98.046,77.926,99.489,77.926,101.548z M72.968,101.619c0,1.176,0.49,2.059,1.4,2.059c0.827,0,1.359-0.827,1.359-2.059
		c0-1.023-0.392-2.059-1.359-2.059C73.346,99.56,72.968,100.61,72.968,101.619z"/>
	<path d="M85.696,102.851c0,0.896,0.028,1.625,0.056,2.199h-1.849l-0.098-0.966h-0.042c-0.266,0.42-0.911,1.121-2.143,1.121
		c-1.387,0-2.409-0.869-2.409-2.984v-4.02h2.143v3.684c0,0.994,0.322,1.597,1.064,1.597c0.588,0,0.924-0.406,1.064-0.742
		c0.056-0.126,0.07-0.294,0.07-0.462v-4.076h2.143V102.851z"/>
	<path d="M87.401,100.386c0-0.854-0.028-1.583-0.056-2.185h1.849l0.098,0.938h0.042c0.28-0.434,0.98-1.093,2.115-1.093
		c1.4,0,2.451,0.925,2.451,2.942v4.062h-2.129v-3.796c0-0.883-0.308-1.485-1.079-1.485c-0.588,0-0.938,0.406-1.078,0.798
		c-0.056,0.126-0.084,0.336-0.084,0.532v3.95h-2.129V100.386z"/>
	<path d="M102.245,95.105v7.9c0,0.77,0.028,1.583,0.056,2.045h-1.891l-0.098-1.008h-0.028c-0.435,0.77-1.261,1.163-2.144,1.163
		c-1.625,0-2.927-1.387-2.927-3.516c-0.014-2.311,1.429-3.642,3.067-3.642c0.841,0,1.499,0.294,1.807,0.771h0.028v-3.712H102.245z
		 M100.115,101.1c0-0.112-0.014-0.266-0.028-0.378c-0.126-0.575-0.588-1.051-1.247-1.051c-0.967,0-1.471,0.869-1.471,1.947
		c0,1.163,0.574,1.891,1.457,1.891c0.616,0,1.106-0.42,1.233-1.022c0.042-0.154,0.056-0.308,0.056-0.49V101.1z"/>
</g>
<g>
	<rect x="45.935" y="141.652" fill="none" width="63.237" height="22.958"/>
	<path d="M56.335,142.088v3.106h3.01v-3.106h1.823v8.083h-1.823v-3.382h-3.01v3.382H54.5v-8.083H56.335z"/>
	<path d="M67.578,146.753h-2.975v1.919h3.322v1.499h-5.157v-8.083h4.989v1.499h-3.154v1.679h2.975V146.753z"/>
	<path d="M71.06,148.097l-0.576,2.075h-1.895l2.47-8.083h2.399l2.507,8.083h-1.967l-0.624-2.075H71.06z M73.111,146.729
		l-0.504-1.715c-0.144-0.479-0.288-1.079-0.408-1.559h-0.024c-0.12,0.48-0.24,1.091-0.372,1.559l-0.479,1.715H73.111z"/>
	<path d="M77.049,142.196c0.672-0.108,1.547-0.168,2.471-0.168c1.535,0,2.531,0.276,3.31,0.864c0.84,0.624,1.367,1.619,1.367,3.046
		c0,1.547-0.563,2.615-1.343,3.274c-0.852,0.708-2.146,1.043-3.73,1.043c-0.947,0-1.619-0.06-2.075-0.12V142.196z M78.884,148.792
		c0.156,0.036,0.408,0.036,0.636,0.036c1.655,0.012,2.734-0.899,2.734-2.831c0.012-1.679-0.971-2.566-2.542-2.566
		c-0.408,0-0.672,0.036-0.828,0.072V148.792z"/>
	<path d="M88.916,143.623h-2.171v-1.535h6.213v1.535h-2.207v6.548h-1.835V143.623z"/>
	<path d="M100.984,146.045c0,2.651-1.607,4.258-3.97,4.258c-2.399,0-3.802-1.811-3.802-4.114c0-2.422,1.547-4.233,3.934-4.233
		C99.629,141.956,100.984,143.815,100.984,146.045z M95.144,146.154c0,1.583,0.744,2.698,1.967,2.698
		c1.235,0,1.943-1.175,1.943-2.747c0-1.451-0.696-2.698-1.955-2.698C95.863,143.407,95.144,144.583,95.144,146.154z"/>
	<path d="M63.963,156.488h1.835v6.548h3.214v1.535h-5.049V156.488z"/>
	<path d="M74.904,161.153H71.93v1.919h3.322v1.499h-5.157v-8.083h4.989v1.499H71.93v1.679h2.975V161.153z"/>
	<path d="M78.386,162.497l-0.576,2.075h-1.895l2.47-8.083h2.399l2.507,8.083h-1.967l-0.624-2.075H78.386z M80.437,161.129
		l-0.504-1.715c-0.144-0.479-0.288-1.08-0.408-1.559h-0.024c-0.12,0.479-0.24,1.091-0.372,1.559l-0.479,1.715H80.437z"/>
	<path d="M84.375,156.596c0.672-0.108,1.547-0.168,2.471-0.168c1.535,0,2.531,0.276,3.31,0.864c0.84,0.624,1.367,1.619,1.367,3.046
		c0,1.547-0.563,2.615-1.343,3.274c-0.852,0.708-2.146,1.043-3.73,1.043c-0.947,0-1.619-0.06-2.075-0.12V156.596z M86.21,163.192
		c0.156,0.036,0.408,0.036,0.636,0.036c1.655,0.012,2.734-0.899,2.734-2.831c0.012-1.679-0.971-2.566-2.542-2.566
		c-0.408,0-0.672,0.036-0.828,0.072V163.192z"/>
</g>
<g>
	<rect x="59.053" y="110.831" fill="none" width="26.31" height="28.808"/>
	<path d="M76.596,138.038h-5.214v-19.649c-1.905,1.781-4.15,3.099-6.735,3.952v-4.731c1.36-0.445,2.839-1.29,4.435-2.533
		s2.69-2.693,3.284-4.351h4.23V138.038z"/>
</g>
<line fill="none" stroke="#000000" stroke-width="3" stroke-miterlimit="10" x1="55.899" y1="30.385" x2="66.644" y2="30.385"/>
<line fill="none" stroke="#000000" stroke-width="3" stroke-miterlimit="10" x1="145.018" y1="30.385" x2="155.763" y2="30.385"/>
<line fill="none" stroke="#000000" stroke-width="3" stroke-miterlimit="10" x1="35.19" y1="56.285" x2="45.935" y2="56.285"/>
<line fill="none" stroke="#000000" stroke-width="3" stroke-miterlimit="10" x1="125.294" y1="56.285" x2="136.039" y2="56.285"/>
<line fill="none" stroke="#000000" stroke-width="3" stroke-miterlimit="10" x1="107.187" y1="92.286" x2="117.932" y2="92.286"/>
<line fill="none" stroke="#000000" stroke-width="3" stroke-miterlimit="10" x1="18.996" y1="92.286" x2="29.74" y2="92.286"/>
<line fill="none" stroke="#000000" stroke-width="3" stroke-miterlimit="10" x1="18.995" y1="139.099" x2="29.74" y2="139.099"/>
<line fill="none" stroke="#000000" stroke-width="3" stroke-miterlimit="10" x1="109.051" y1="139.099" x2="119.795" y2="139.099"/>
<path d="M189.92,189.92H0V0H189.92V189.92z M5.017,184.903h179.886V5.017H5.017V184.903z"/>
</svg>
