<?xml version="1.0" encoding="utf-8"?>
<!-- Generator: Adobe Illustrator 16.0.0, SVG Export Plug-In . SVG Version: 6.00 Build 0)  -->
<!DOCTYPE svg PUBLIC "-//W3C//DTD SVG 1.1//EN" "http://www.w3.org/Graphics/SVG/1.1/DTD/svg11.dtd">
<svg version="1.1" id="Layer_1" xmlns="http://www.w3.org/2000/svg" xmlns:xlink="http://www.w3.org/1999/xlink" x="0px" y="0px"
	 width="189.92px" height="189.92px" viewBox="0 0 189.92 189.92" enable-background="new 0 0 189.92 189.92" xml:space="preserve">
<g>
	<path d="M120.205,70.593c-0.865,0.069-2.061,0.112-3.713,0.083c-1.67-0.03-2.791-0.239-3.453-0.63
		c-0.635-0.37-0.936-0.966-0.684-1.657c0.252-0.692,0.857-1.271,1.713-1.657c1.111-0.498,2.563-0.705,4.162-0.677
		c0.355,0.006,0.67,0.022,0.912,0.048l0.92-2.525l2.684,0.047L120.205,70.593z M118.693,67.338c-0.223-0.035-0.5-0.05-0.893-0.057
		c-1.439-0.025-2.482,0.389-2.748,1.112c-0.234,0.649,0.387,1.05,1.736,1.074c0.551,0.01,0.936-0.015,1.143-0.043L118.693,67.338z"
		/>
	<path d="M109.878,70.412c-0.904,0.068-2.223,0.109-3.662,0.083c-1.777-0.031-2.963-0.21-3.67-0.623
		c-0.588-0.349-0.8-0.847-0.563-1.497c0.329-0.901,1.638-1.5,2.749-1.702l0.012-0.031c-0.764-0.214-1.053-0.693-1.118-1.348
		c-0.083-0.803-0.12-1.732-0.252-2.009l2.771,0.048c0.124,0.203,0.197,0.784,0.235,1.66c0,0.886,0.427,1.136,1.523,1.165
		l0.818,0.015l1.012-2.777l2.684,0.046L109.878,70.412z M108.302,67.326l-1.066-0.019c-1.351-0.023-2.295,0.361-2.52,0.979
		c-0.237,0.65,0.391,0.988,1.631,1.02c0.656,0.012,1.042-0.013,1.244-0.03L108.302,67.326z"/>
	<path d="M96.583,70.274l2.574-7.062l2.719,0.047l-2.574,7.063L96.583,70.274z"/>
	<path d="M96.81,63.171l-2.574,7.062l-3.163-0.055l-1.543-2.631c-0.44-0.757-0.829-1.65-1.072-2.455l-0.054-0.001
		c-0.161,0.936-0.457,1.89-0.841,2.949l-0.752,2.064l-2.487-0.043l2.574-7.063l2.842,0.049l1.565,2.77
		c0.436,0.767,0.885,1.692,1.17,2.53l0.057-0.009c0.269-0.935,0.595-1.931,1.017-3.084l0.775-2.126L96.81,63.171z"/>
	<path d="M80.151,68.637l3.216,0.056l-0.49,1.341l-9.203-0.161l0.489-1.341l3.27,0.058l2.085-5.722l2.717,0.048L80.151,68.637z"/>
	<path d="M69.514,69.8l2.574-7.062l2.717,0.048l-2.573,7.062L69.514,69.8z"/>
	<path d="M69.74,62.697l-2.574,7.063l-3.164-0.056l-1.545-2.631c-0.438-0.756-0.826-1.649-1.07-2.455l-0.053-0.001
		c-0.163,0.936-0.456,1.89-0.843,2.949l-0.753,2.063l-2.487-0.043l2.575-7.063l2.842,0.05l1.565,2.769
		c0.436,0.767,0.885,1.692,1.17,2.531l0.057-0.01c0.269-0.934,0.596-1.93,1.016-3.083l0.775-2.126L69.74,62.697z"/>
	<path d="M47.354,62.633c0.896-0.153,2.563-0.356,4.143-0.328c2.186,0.038,3.647,0.391,4.521,1.039
		c0.88,0.627,1.147,1.559,0.753,2.597c-0.875,2.347-4.26,3.637-8.186,3.569c-1.545-0.027-2.671-0.226-3.195-0.403l1.035-1.269
		c0.596,0.179,1.362,0.329,2.678,0.352c2.256,0.04,4.236-0.685,4.793-2.214c0.531-1.457-0.701-2.343-2.922-2.382
		c-0.621-0.011-1.133,0.022-1.369,0.081l-0.539,1.478l1.848,0.033l-0.455,1.247l-4.459-0.078L47.354,62.633z"/>
	<path d="M112.927,57.803c-0.9,0.07-2.223,0.108-3.66,0.083c-1.777-0.031-2.964-0.209-3.671-0.623
		c-0.589-0.347-0.8-0.847-0.563-1.497c0.328-0.9,1.639-1.5,2.749-1.703l0.011-0.031c-0.762-0.213-1.052-0.692-1.117-1.348
		c-0.082-0.803-0.121-1.731-0.25-2.008l2.77,0.048c0.123,0.203,0.197,0.784,0.236,1.659c-0.002,0.886,0.426,1.137,1.523,1.167
		l0.818,0.014l1.012-2.777l2.682,0.047L112.927,57.803z M111.351,54.718l-1.066-0.019c-1.35-0.023-2.295,0.361-2.52,0.979
		c-0.236,0.651,0.391,0.988,1.631,1.02c0.658,0.012,1.043-0.014,1.244-0.031L111.351,54.718z"/>
	<path d="M96.712,53.512l4.406,0.077l0.611-1.677l-4.92-0.086l0.478-1.31l7.639,0.134l-2.575,7.063l-7.391-0.129l0.479-1.31
		l4.672,0.082l0.535-1.468l-4.406-0.077L96.712,53.512z"/>
	<path d="M91.986,52.249l1.512-1.798l2.807,0.049l-6.233,6.999l-3.554-0.062l-1.139-7.128l2.915,0.051l0.263,1.829L91.986,52.249z
		 M88.511,53.39l0.199,1.511c0.062,0.423,0.083,0.951,0.109,1.374l0.034,0c0.331-0.416,0.704-0.947,1.047-1.353l1.257-1.486
		L88.511,53.39z"/>
	<path d="M81.234,57.25c-1.03,0.077-2.346,0.106-3.714,0.083c-2.273-0.04-3.661-0.306-4.628-0.84
		c-1.045-0.566-1.51-1.45-1.056-2.696c0.492-1.353,1.668-2.271,3.034-2.827c1.487-0.596,3.511-0.856,5.858-0.815
		c1.403,0.025,2.378,0.095,3.034,0.158L81.234,57.25z M80.616,51.438c-0.218-0.036-0.592-0.042-0.93-0.048
		c-2.448-0.053-4.336,0.715-4.952,2.402c-0.551,1.467,0.622,2.268,2.949,2.309c0.604,0.011,1.007-0.014,1.249-0.042L80.616,51.438z"
		/>
	<path d="M70.713,51.708c-0.648-0.233-1.687-0.472-2.842-0.493c-1.244-0.021-2.012,0.271-2.179,0.732
		c-0.161,0.44,0.315,0.702,1.644,1.03c1.842,0.444,2.9,1.116,2.527,2.143c-0.441,1.206-2.481,2.098-5.306,2.048
		c-1.351-0.023-2.283-0.208-2.926-0.41l1.073-1.277c0.431,0.144,1.21,0.358,2.384,0.378c1.172,0.021,1.855-0.284,1.989-0.651
		c0.164-0.45-0.439-0.661-1.86-1.034c-1.944-0.498-2.703-1.166-2.34-2.161c0.433-1.185,2.344-2.163,5.631-2.106
		c1.367,0.024,2.641,0.257,3.236,0.489L70.713,51.708z"/>
	<path d="M126.376,44.122l3.217,0.056l-0.488,1.34l-9.203-0.161l0.488-1.341l3.268,0.058l2.086-5.722l2.719,0.047L126.376,44.122z"
		/>
	<path d="M115.74,45.286l0.988-2.714l-4.459-0.078l-0.99,2.714l-2.701-0.047l2.576-7.063l2.701,0.047l-1.078,2.955l4.459,0.078
		l1.076-2.955l2.719,0.047l-2.572,7.063L115.74,45.286z"/>
	<path d="M103.492,45.072l2.574-7.063l2.717,0.047l-2.574,7.063L103.492,45.072z"/>
	<path d="M103.028,39.611c-0.646-0.232-1.687-0.473-2.841-0.493c-1.244-0.022-2.012,0.271-2.18,0.732
		c-0.16,0.44,0.316,0.701,1.645,1.031c1.84,0.443,2.901,1.116,2.527,2.143c-0.44,1.205-2.48,2.098-5.307,2.048
		c-1.35-0.023-2.285-0.209-2.926-0.409l1.073-1.279c0.432,0.145,1.211,0.359,2.382,0.379c1.174,0.021,1.857-0.284,1.99-0.65
		c0.166-0.451-0.439-0.662-1.857-1.036c-1.947-0.498-2.704-1.164-2.341-2.159c0.432-1.185,2.343-2.164,5.63-2.106
		c1.368,0.024,2.641,0.258,3.236,0.49L103.028,39.611z"/>
	<path d="M89.249,37.715l0.269,7.112l-2.896-0.051l0.155-2.929c0.04-0.842,0.124-1.759,0.188-2.475l-0.035,0
		c-0.476,0.762-1.069,1.606-1.687,2.47l-2.066,2.874l-2.879-0.05l0.125-2.993c0.036-0.833,0.116-1.59,0.224-2.38l-0.035,0
		c-0.465,0.783-1.031,1.606-1.586,2.44l-2.032,2.875l-2.754-0.048l5.666-7.008l2.932,0.051l-0.095,3.057
		c-0.028,0.716-0.074,1.38-0.226,2.189l0.034,0.001c0.504-0.793,0.944-1.46,1.488-2.168l2.245-3.019L89.249,37.715z"/>
	<path d="M72.912,39.253l1.514-1.797l2.805,0.049l-6.233,6.999l-3.553-0.063l-1.137-7.127l2.912,0.051l0.264,1.828L72.912,39.253z
		 M69.438,40.395l0.2,1.512c0.061,0.423,0.083,0.95,0.106,1.373l0.037,0c0.331-0.416,0.703-0.948,1.047-1.352l1.256-1.486
		L69.438,40.395z"/>
	<path d="M63.617,37.266l-1.055,2.892l2.265,4.237l-3.091-0.054l-0.608-1.719c-0.186-0.521-0.296-0.902-0.43-1.369l-0.035,0
		c-0.428,0.436-0.861,0.84-1.4,1.336l-1.826,1.676l-3.037-0.053l5.445-4.049l1.073-2.945L63.617,37.266z"/>
</g>
<ellipse fill="none" stroke="#000000" stroke-width="1.0119" stroke-miterlimit="10" cx="148.192" cy="120.264" rx="31.181" ry="47.935"/>
<ellipse fill="none" stroke="#000000" stroke-width="0.4938" stroke-miterlimit="10" cx="150.392" cy="121.633" rx="16.586" ry="21.457"/>
<ellipse cx="150.392" cy="121.633" rx="12.746" ry="18.557"/>
<path fill="none" stroke="#000000" stroke-miterlimit="10" d="M60.627,23.928h106.351c0,0-49.967,33.909-49.967,97.705
	c0,0,3.246,46.565,31.182,46.565H47.627c0,0-32.75-3.521-32.75-54.271S60.627,23.928,60.627,23.928z"/>
<path d="M159.228,35.318l9.832-3.382l-1.039,9.104l-3.227-1.977c0,0-11.705,12.955-14.932,20.135l-4.684-2.081
	c0,0,8.43-13.371,16.807-19.51L159.228,35.318z"/>
<line fill="none" stroke="#000000" stroke-miterlimit="10" x1="148.193" y1="72.331" x2="127.433" y2="72.331"/>
<g>
	<rect x="29.741" y="95.662" fill="none" width="80.026" height="12.387"/>
	<path d="M45.98,100.783c0,3.096-1.877,4.973-4.637,4.973c-2.801,0-4.44-2.115-4.44-4.805c0-2.83,1.807-4.945,4.595-4.945
		C44.397,96.007,45.98,98.178,45.98,100.783z M39.159,100.91c0,1.849,0.868,3.151,2.297,3.151c1.443,0,2.27-1.373,2.27-3.208
		c0-1.695-0.813-3.152-2.283-3.152C39.999,97.702,39.159,99.075,39.159,100.91z"/>
	<path d="M53.833,103.403c0,0.896,0.028,1.625,0.056,2.199H52.04l-0.098-0.966H51.9c-0.266,0.42-0.911,1.121-2.143,1.121
		c-1.387,0-2.409-0.869-2.409-2.984v-4.02h2.143v3.684c0,0.994,0.322,1.597,1.064,1.597c0.588,0,0.924-0.406,1.064-0.742
		c0.056-0.126,0.07-0.294,0.07-0.462v-4.076h2.143V103.403z"/>
	<path d="M57.919,96.792v1.961h1.527v1.569h-1.527v2.479c0,0.826,0.196,1.205,0.84,1.205c0.266,0,0.476-0.028,0.63-0.056
		l0.014,1.611c-0.28,0.112-0.785,0.182-1.387,0.182c-0.687,0-1.261-0.238-1.597-0.588c-0.392-0.406-0.588-1.064-0.588-2.031v-2.801
		h-0.91v-1.569h0.91v-1.485L57.919,96.792z"/>
	<path d="M62.216,98.752l0.546,2.801c0.14,0.714,0.28,1.471,0.392,2.255h0.028c0.14-0.785,0.336-1.569,0.504-2.241l0.729-2.815
		h1.681l0.686,2.731c0.182,0.771,0.364,1.541,0.504,2.325h0.028c0.098-0.785,0.238-1.555,0.393-2.339l0.588-2.717h2.087l-2.101,6.85
		h-2.003l-0.644-2.409c-0.168-0.672-0.294-1.289-0.434-2.129h-0.028c-0.126,0.854-0.266,1.485-0.448,2.129l-0.687,2.409h-2.003
		l-1.989-6.85H62.216z"/>
	<path d="M77.927,102.1c0,2.507-1.779,3.656-3.614,3.656c-2.003,0-3.544-1.317-3.544-3.53c0-2.213,1.457-3.628,3.656-3.628
		C76.526,98.598,77.927,100.041,77.927,102.1z M72.968,102.17c0,1.176,0.49,2.059,1.4,2.059c0.827,0,1.359-0.827,1.359-2.059
		c0-1.023-0.392-2.059-1.359-2.059C73.346,100.111,72.968,101.162,72.968,102.17z"/>
	<path d="M85.697,103.403c0,0.896,0.028,1.625,0.056,2.199h-1.849l-0.098-0.966h-0.042c-0.266,0.42-0.911,1.121-2.143,1.121
		c-1.387,0-2.409-0.869-2.409-2.984v-4.02h2.143v3.684c0,0.994,0.322,1.597,1.064,1.597c0.588,0,0.924-0.406,1.064-0.742
		c0.056-0.126,0.07-0.294,0.07-0.462v-4.076h2.143V103.403z"/>
	<path d="M87.401,100.938c0-0.854-0.028-1.583-0.056-2.185h1.849l0.098,0.938h0.042c0.28-0.434,0.98-1.093,2.115-1.093
		c1.4,0,2.451,0.925,2.451,2.942v4.062h-2.129v-3.796c0-0.883-0.308-1.485-1.079-1.485c-0.588,0-0.938,0.406-1.078,0.798
		c-0.056,0.126-0.084,0.336-0.084,0.532v3.95h-2.129V100.938z"/>
	<path d="M102.246,95.657v7.9c0,0.77,0.027,1.583,0.056,2.045h-1.892l-0.098-1.008h-0.027c-0.436,0.77-1.262,1.163-2.145,1.163
		c-1.624,0-2.927-1.387-2.927-3.516c-0.014-2.311,1.429-3.642,3.067-3.642c0.841,0,1.499,0.294,1.807,0.771h0.028v-3.712H102.246z
		 M100.116,101.652c0-0.112-0.014-0.266-0.028-0.378c-0.125-0.575-0.588-1.051-1.246-1.051c-0.967,0-1.471,0.869-1.471,1.947
		c0,1.163,0.574,1.891,1.457,1.891c0.615,0,1.105-0.42,1.232-1.022c0.042-0.154,0.056-0.308,0.056-0.49V101.652z"/>
</g>
<g>
	<rect x="45.935" y="142.204" fill="none" width="63.236" height="22.958"/>
	<path d="M55.065,142.64h4.941v1.499H56.9v1.847h2.902v1.487H56.9v3.25h-1.835V142.64z"/>
	<path d="M68.789,146.597c0,2.651-1.607,4.258-3.97,4.258c-2.399,0-3.802-1.811-3.802-4.114c0-2.422,1.547-4.233,3.934-4.233
		C67.434,142.508,68.789,144.367,68.789,146.597z M62.948,146.706c0,1.583,0.744,2.698,1.967,2.698c1.235,0,1.943-1.175,1.943-2.747
		c0-1.451-0.696-2.698-1.955-2.698C63.667,143.959,62.948,145.134,62.948,146.706z"/>
	<path d="M77.393,146.597c0,2.651-1.607,4.258-3.97,4.258c-2.398,0-3.802-1.811-3.802-4.114c0-2.422,1.547-4.233,3.934-4.233
		C76.038,142.508,77.393,144.367,77.393,146.597z M71.552,146.706c0,1.583,0.744,2.698,1.967,2.698c1.235,0,1.943-1.175,1.943-2.747
		c0-1.451-0.696-2.698-1.955-2.698C72.271,143.959,71.552,145.134,71.552,146.706z"/>
	<path d="M79.82,144.175h-2.171v-1.535h6.213v1.535h-2.207v6.548H79.82V144.175z"/>
	<path d="M88.352,144.175h-2.171v-1.535h6.213v1.535h-2.207v6.548h-1.835V144.175z"/>
	<path d="M100.419,146.597c0,2.651-1.606,4.258-3.969,4.258c-2.399,0-3.802-1.811-3.802-4.114c0-2.422,1.547-4.233,3.933-4.233
		C99.065,142.508,100.419,144.367,100.419,146.597z M94.579,146.706c0,1.583,0.744,2.698,1.967,2.698
		c1.234,0,1.943-1.175,1.943-2.747c0-1.451-0.696-2.698-1.955-2.698C95.299,143.959,94.579,145.134,94.579,146.706z"/>
	<path d="M63.963,157.04h1.835v6.548h3.214v1.535h-5.049V157.04z"/>
	<path d="M74.905,161.705H71.93v1.919h3.322v1.499h-5.157v-8.083h4.989v1.499H71.93v1.679h2.975V161.705z"/>
	<path d="M78.386,163.048l-0.576,2.075h-1.895l2.47-8.083h2.399l2.507,8.083h-1.967l-0.624-2.075H78.386z M80.438,161.681
		l-0.504-1.715c-0.144-0.479-0.288-1.08-0.408-1.559h-0.024c-0.12,0.479-0.24,1.091-0.372,1.559l-0.479,1.715H80.438z"/>
	<path d="M84.375,157.147c0.672-0.108,1.547-0.168,2.471-0.168c1.535,0,2.531,0.276,3.31,0.864c0.84,0.624,1.367,1.619,1.367,3.046
		c0,1.547-0.563,2.615-1.343,3.274c-0.852,0.708-2.146,1.043-3.73,1.043c-0.947,0-1.619-0.06-2.075-0.12V157.147z M86.21,163.744
		c0.156,0.036,0.408,0.036,0.636,0.036c1.655,0.012,2.734-0.899,2.734-2.831c0.012-1.679-0.971-2.566-2.542-2.566
		c-0.408,0-0.672,0.036-0.828,0.072V163.744z"/>
</g>
<g>
	<rect x="59.053" y="111.382" fill="none" width="26.31" height="28.808"/>
	<path d="M80.864,133.747v4.843H62.587c0.198-1.831,0.792-3.565,1.781-5.205c0.989-1.639,2.944-3.813,5.863-6.522
		c2.35-2.189,3.791-3.674,4.323-4.453c0.717-1.076,1.076-2.14,1.076-3.191c0-1.163-0.313-2.056-0.937-2.681
		c-0.625-0.625-1.488-0.937-2.588-0.937c-1.089,0-1.955,0.328-2.598,0.983c-0.644,0.656-1.015,1.744-1.113,3.266l-5.195-0.52
		c0.309-2.87,1.28-4.929,2.913-6.179c1.633-1.249,3.674-1.874,6.123-1.874c2.684,0,4.793,0.724,6.327,2.171
		c1.534,1.447,2.301,3.247,2.301,5.399c0,1.225-0.22,2.391-0.659,3.498c-0.439,1.107-1.135,2.267-2.087,3.479
		c-0.631,0.804-1.769,1.961-3.414,3.47c-1.646,1.509-2.688,2.511-3.126,3.006c-0.439,0.495-0.795,0.978-1.067,1.447H80.864z"/>
</g>
<line fill="none" stroke="#000000" stroke-width="3" stroke-miterlimit="10" x1="55.9" y1="30.937" x2="66.645" y2="30.937"/>
<line fill="none" stroke="#000000" stroke-width="3" stroke-miterlimit="10" x1="145.019" y1="30.937" x2="155.763" y2="30.937"/>
<line fill="none" stroke="#000000" stroke-width="3" stroke-miterlimit="10" x1="35.19" y1="56.837" x2="45.935" y2="56.837"/>
<line fill="none" stroke="#000000" stroke-width="3" stroke-miterlimit="10" x1="125.294" y1="56.837" x2="136.039" y2="56.837"/>
<line fill="none" stroke="#000000" stroke-width="3" stroke-miterlimit="10" x1="107.187" y1="92.837" x2="117.933" y2="92.837"/>
<line fill="none" stroke="#000000" stroke-width="3" stroke-miterlimit="10" x1="18.996" y1="92.837" x2="29.741" y2="92.837"/>
<line fill="none" stroke="#000000" stroke-width="3" stroke-miterlimit="10" x1="18.996" y1="139.651" x2="29.74" y2="139.651"/>
<line fill="none" stroke="#000000" stroke-width="3" stroke-miterlimit="10" x1="109.052" y1="139.651" x2="119.796" y2="139.651"/>
<path d="M189.92,189.92H0V0H189.92V189.92z M5.017,184.903h179.886V5.017H5.017V184.903z"/>
</svg>
