<?xml version="1.0" encoding="UTF-8"?><svg id="Layer_1" xmlns="http://www.w3.org/2000/svg" width="100mm" height="100mm" viewBox="0 0 283.46 283.46"><defs><style>.cls-1{fill:#e30613;}.cls-1,.cls-2,.cls-3,.cls-4{stroke:#1d1d1b;stroke-miterlimit:10;}.cls-5{fill:#1d1d1b;}.cls-2{fill:#e3e3e3;}.cls-3{fill:#fff;}.cls-4{fill:#c2c2c2;}</style></defs><path class="cls-3" d="M72.04,72.76v130.69c0,27.19,38.3,49.23,85.54,49.23s85.54-22.04,85.54-49.23V72.76"/><path class="cls-4" d="M180.24,25.52S59.85,10.9,40.36,64.02l2.97,154.03s10.41-7.33,28.71-9.67V76.72l108.2-51.2Z"/><path class="cls-3" d="M40.36,64.02l2.97,179.03s3.33,15.67,20.33,19.34l-1-173.51s-19.33-9.83-22.31-24.86Z"/><ellipse class="cls-2" cx="157.57" cy="72.76" rx="85.54" ry="49.23"/><path class="cls-1" d="M157.57,226.04c-47.24,0-85.54-15.09-85.54-42.27v19.75c0,27.19,38.3,49.23,85.54,49.23s85.54-22.04,85.54-49.23v-19.75c0,27.19-38.3,42.27-85.54,42.27Z"/><ellipse class="cls-5" cx="155.38" cy="71.78" rx="27.29" ry="15.11"/><path class="cls-1" d="M42.02,190.94l1.31,52.1s3.33,15.67,20.33,19.34l-1-46.58s-17.67-9.83-20.64-24.86Z"/></svg>